<?xml version="1.0" encoding="UTF-8"?>
<svg version="1.1" xmlns="http://www.w3.org/2000/svg" width="1904" height="1040">
<path d="M0 0 C628.32 0 1256.64 0 1904 0 C1904 343.2 1904 686.4 1904 1040 C1275.68 1040 647.36 1040 0 1040 C0 696.8 0 353.6 0 0 Z " fill="#FEFEFE" transform="translate(0,0)"/>
<path d="M0 0 C17.71040014 -0.74715751 35.20702828 1.84522037 49.203125 13.546875 C58.37434475 22.2169352 64.83441506 32.46023195 67 45 C67 46.32 67 47.64 67 49 C67.66 49 68.32 49 69 49 C69.09023438 47.84242188 69.18046875 46.68484375 69.2734375 45.4921875 C69.85857444 40.85798452 71.46344684 37.22762186 73.625 33.125 C73.98255371 32.43100098 74.34010742 31.73700195 74.70849609 31.02197266 C78.97846227 22.89940542 83.84482526 14.88314367 91 9 C94.0793679 9.07682415 95.09822738 10.09221014 97.359375 12.21484375 C98.14828125 13.11332031 98.9371875 14.01179688 99.75 14.9375 C100.94882812 16.28134766 100.94882812 16.28134766 102.171875 17.65234375 C104 20 104 20 104 22 C102.27734375 23.48046875 102.27734375 23.48046875 99.9375 25.1875 C89.68164517 33.03587717 81.52949191 42.50856351 79.265625 55.72265625 C78.75008901 60.14261919 78.31528503 64.56111871 78 69 C79.22074219 68.52949219 80.44148437 68.05898438 81.69921875 67.57421875 C103.99919726 59.08299439 124.0882367 55.22824851 146.90234375 64.1328125 C152.89809707 66.92282406 158.01466768 70.68420415 163 75 C163.67933594 75.58394531 164.35867188 76.16789062 165.05859375 76.76953125 C178.90514373 89.59041086 187.00959897 110.40886342 188.12597656 129.11035156 C188.5686666 141.99319206 187.47157638 154.35957388 185 167 C184.75636719 168.2478125 184.51273438 169.495625 184.26171875 170.78125 C178.91394302 193.69304746 167.00054168 215.98033186 152 234 C151.25878906 234.89460937 150.51757812 235.78921875 149.75390625 236.7109375 C139.26586282 248.86285947 126.44207624 259.2720111 110 261 C108.84757812 261.15855469 108.84757812 261.15855469 107.671875 261.3203125 C100.8799744 261.81155059 95.04116901 259.96102998 88.625 258 C75.8130673 254.1330727 66.82167874 253.67159996 54.19140625 258.80859375 C44.3014315 262.50068959 32.93592746 262.19459045 23.10546875 258.51953125 C16.85523383 255.4612402 11.42305225 251.32521485 6 247 C5.113125 246.29875 4.22625 245.5975 3.3125 244.875 C-20.27406685 224.91713574 -35.59856611 192.97795812 -41 163 C-41.20625 161.9378125 -41.4125 160.875625 -41.625 159.78125 C-45.97670212 134.39632094 -42.71985767 107.3131744 -28.03515625 85.625 C-18.6797864 73.55818899 -7.57650192 65.44456923 7 61 C8.56427734 60.46246094 8.56427734 60.46246094 10.16015625 59.9140625 C15.06249218 58.74707714 19.66573758 58.65833363 24.6875 58.6875 C26.15461426 58.69378418 26.15461426 58.69378418 27.65136719 58.70019531 C34.79175659 58.81172682 41.24912561 59.54798225 48 62 C48.86496094 62.31324219 49.72992187 62.62648438 50.62109375 62.94921875 C53.11067191 63.90791475 55.55595123 64.93097704 58 66 C58.86496094 66.37769531 59.72992187 66.75539063 60.62109375 67.14453125 C62.75225132 68.08543233 64.8768532 69.04115951 67 70 C67 65.05 67 60.1 67 55 C66.01 55.495 66.01 55.495 65 56 C47.69247634 56.9302794 33.06813824 53.50196348 19 43 C17.948125 42.21625 16.89625 41.4325 15.8125 40.625 C10.07606922 35.27099793 6.18704987 29.12852218 3 22 C2.4121875 20.700625 2.4121875 20.700625 1.8125 19.375 C-0.36392892 13.01313086 -0.10634847 6.64087097 0 0 Z " fill="#E6B23D" transform="translate(880,381)"/>
<path d="M0 0 C0 28.71 0 57.42 0 87 C4.29 87 8.58 87 13 87 C13 90.63 13 94.26 13 98 C-33.53 98 -80.06 98 -128 98 C-128 94.04 -128 90.08 -128 86 C-125.03 86 -122.06 86 -119 86 C-119.23203125 84.71609375 -119.4640625 83.4321875 -119.703125 82.109375 C-120.57838556 74.95255205 -121.17107313 68.34539586 -117.1015625 62.07470703 C-110.90374815 54.75241059 -103.63639502 47.31819751 -95 43 C-95 57.19 -95 71.38 -95 86 C-92.36 86 -89.72 86 -87 86 C-87.02664734 85.37518738 -87.05329468 84.75037476 -87.08074951 84.10662842 C-87.3480099 77.55272562 -87.52791457 71.00038793 -87.65917969 64.44238281 C-87.71921387 62.00163838 -87.80087487 59.56131987 -87.90527344 57.12207031 C-88.84323254 34.62944318 -88.84323254 34.62944318 -82.65362549 27.88262939 C-80.22507997 25.66258611 -77.76236922 23.79071285 -75 22 C-70.23882034 24.25560593 -66.18727441 26.72202485 -63 31 C-61.91807584 35.25816462 -62.06411537 39.34462389 -62.21875 43.71484375 C-62.23006958 44.92572159 -62.24138916 46.13659943 -62.25305176 47.38417053 C-62.29769658 51.23691607 -62.39805331 55.08588686 -62.5 58.9375 C-62.54014163 61.55528465 -62.57664117 64.17312786 -62.609375 66.79101562 C-62.69739381 73.19528983 -62.8311181 79.59737525 -63 86 C-60.69 86 -58.38 86 -56 86 C-56 70.49 -56 54.98 -56 39 C-51.69623851 40.7215046 -49.47710284 42.18072743 -46 45 C-45.34 45 -44.68 45 -44 45 C-43.34 44.175 -42.68 43.35 -42 42.5 C-41.34 41.675 -40.68 40.85 -40 40 C-39.34 40 -38.68 40 -38 40 C-37.62875 39.1028125 -37.62875 39.1028125 -37.25 38.1875 C-36 36 -36 36 -32 33 C-32 50.82 -32 68.64 -32 87 C-29.36 87 -26.72 87 -24 87 C-24.01776489 86.21596802 -24.03552979 85.43193604 -24.05383301 84.62414551 C-24.21459919 77.20984545 -24.33616021 69.7963984 -24.41449738 62.38080597 C-24.45612782 58.56886531 -24.51252124 54.75837282 -24.60351562 50.94726562 C-24.69089413 47.26425617 -24.73836536 43.58263286 -24.75901794 39.89866638 C-24.77372074 38.49834886 -24.80243465 37.09810137 -24.84584045 35.69837952 C-25.17198415 24.73815899 -25.17198415 24.73815899 -22.24212646 20.39291382 C-20.2578927 18.40157163 -18.23463264 16.69872829 -16 15 C-14.1650346 12.92081259 -12.39943627 10.80708012 -10.640625 8.6640625 C-8.8826785 6.88100248 -7.23507106 6.08012848 -5 5 C-3.86649466 2.98330173 -3.86649466 2.98330173 -3 1 C-1 0 -1 0 0 0 Z " fill="#F9FBF4" transform="translate(1010,503)"/>
<path d="M0 0 C17.71040014 -0.74715751 35.20702828 1.84522037 49.203125 13.546875 C58.37434475 22.2169352 64.83441506 32.46023195 67 45 C67 46.32 67 47.64 67 49 C67.66 49 68.32 49 69 49 C69.09023438 47.84242188 69.18046875 46.68484375 69.2734375 45.4921875 C69.85857444 40.85798452 71.46344684 37.22762186 73.625 33.125 C73.98255371 32.43100098 74.34010742 31.73700195 74.70849609 31.02197266 C78.97846227 22.89940542 83.84482526 14.88314367 91 9 C94.0793679 9.07682415 95.09822738 10.09221014 97.359375 12.21484375 C98.14828125 13.11332031 98.9371875 14.01179688 99.75 14.9375 C100.54921875 15.83339844 101.3484375 16.72929687 102.171875 17.65234375 C104 20 104 20 104 22 C102.27734375 23.48046875 102.27734375 23.48046875 99.9375 25.1875 C89.68164517 33.03587717 81.52949191 42.50856351 79.265625 55.72265625 C78.75008901 60.14261919 78.31528503 64.56111871 78 69 C80.97 68.01 83.94 67.02 87 66 C86.01 67.98 86.01 67.98 85 70 C82.32209537 70.83886169 79.8262059 70.81766414 77 71 C76.505 67.535 76.505 67.535 76 64 C75.38125 63.9175 74.7625 63.835 74.125 63.75 C72 63 72 63 70.8671875 60.953125 C70.58101562 60.30859375 70.29484375 59.6640625 70 59 C69.93941406 59.69867188 69.87882813 60.39734375 69.81640625 61.1171875 C69.69072266 62.48230469 69.69072266 62.48230469 69.5625 63.875 C69.44068359 65.23238281 69.44068359 65.23238281 69.31640625 66.6171875 C69 69 69 69 68 71 C63.428721 70.45144652 59.32564205 69.58255197 55 68 C55 67.34 55 66.68 55 66 C59.90696232 66.58416218 62.30988363 67.65494181 67 70 C67 65.05 67 60.1 67 55 C66.01 55.495 66.01 55.495 65 56 C47.69247634 56.9302794 33.06813824 53.50196348 19 43 C17.948125 42.21625 16.89625 41.4325 15.8125 40.625 C10.07606922 35.27099793 6.18704987 29.12852218 3 22 C2.608125 21.13375 2.21625 20.2675 1.8125 19.375 C-0.36392892 13.01313086 -0.10634847 6.64087097 0 0 Z " fill="#E4B441" transform="translate(880,381)"/>
<path d="M0 0 C0.14529183 6.53813222 -0.35352418 12.67202293 -1.375 19.125 C-1.50132812 19.97964844 -1.62765625 20.83429688 -1.7578125 21.71484375 C-2.51049776 26.61482481 -3.5248604 31.26672599 -5 36 C-8.94139078 34.33248852 -11.7892812 31.77289351 -15 29 C-19.73468376 30.14780212 -21.74309281 32.81146123 -24.71484375 36.390625 C-27.65937749 39.75293019 -30.81870226 42.86322213 -34 46 C-39.44494463 51.37689689 -39.44494463 51.37689689 -44.5625 57.0625 C-47.80706108 60.85614064 -51.21839493 64.47484208 -54.6875 68.0625 C-55.24703369 68.66006104 -55.80656738 69.25762207 -56.38305664 69.87329102 C-58.01171875 71.53515625 -58.01171875 71.53515625 -61 74 C-64.80561766 73.54999463 -66.63175865 71.78562107 -69.375 69.1875 C-70.24125 68.38828125 -71.1075 67.5890625 -72 66.765625 C-72.474375 66.32669922 -72.94875 65.88777344 -73.4375 65.43554688 C-76.3823261 62.7299879 -79.36936719 60.07518429 -82.375 57.4375 C-83.26711182 56.63252075 -83.26711182 56.63252075 -84.17724609 55.8112793 C-87.9762645 52.47646348 -87.9762645 52.47646348 -93 52 C-94.94728497 53.62267493 -96.61998741 55.2017856 -98.3515625 57.03125 C-98.8516684 57.54175903 -99.35177429 58.05226807 -99.86703491 58.57824707 C-101.46280357 60.20963654 -103.04456926 61.85375801 -104.625 63.5 C-106.21425313 65.14443553 -107.80630893 66.78589252 -109.40438843 68.42175293 C-110.39825787 69.44019337 -111.38673257 70.463931 -112.36929321 71.49328613 C-113.54180458 72.70002774 -114.76673875 73.85541497 -116 75 C-116.66 75 -117.32 75 -118 75 C-118.23460937 75.57234375 -118.46921875 76.1446875 -118.7109375 76.734375 C-120.29406585 79.51684301 -122.1991525 81.17070214 -124.625 83.25 C-125.44226563 83.95640625 -126.25953125 84.6628125 -127.1015625 85.390625 C-128.04128906 86.18726563 -128.04128906 86.18726563 -129 87 C-133.28359673 85.1144852 -135.15103592 82.64034299 -138 79 C-132.45445953 66.63384322 -118.39111509 56.27827433 -108.9375 46.875 C-107.29208424 45.23460915 -105.64689999 43.59398605 -104.00195312 41.953125 C-100.00396822 37.96606742 -96.0031313 33.98189006 -92 30 C-87.45293867 32.19181815 -84.03486102 34.69120519 -80.875 38.6875 C-77.65475975 42.73344288 -73.55490509 45.75165747 -69.5234375 48.94921875 C-67 51 -67 51 -65.2890625 52.76953125 C-64.05589137 54.23015858 -64.05589137 54.23015858 -62 54 C-60.27296493 52.37179604 -58.63725472 50.71509535 -57 49 C-55.89551586 47.89013521 -54.788165 46.78311832 -53.6784668 45.6784668 C-53.07822189 45.07822189 -52.47797699 44.47797699 -51.85954285 43.85954285 C-43.57302856 35.57302856 -35.28651428 27.28651428 -27 19 C-27.58910156 18.31292969 -28.17820312 17.62585938 -28.78515625 16.91796875 C-29.91244141 15.56638672 -29.91244141 15.56638672 -31.0625 14.1875 C-32.19365234 12.84751953 -32.19365234 12.84751953 -33.34765625 11.48046875 C-33.89292969 10.66191406 -34.43820312 9.84335937 -35 9 C-34.67 8.01 -34.34 7.02 -34 6 C-31.734375 5.10864258 -31.734375 5.10864258 -28.75 4.39453125 C-27.66589844 4.13349609 -26.58179688 3.87246094 -25.46484375 3.60351562 C-24.32144531 3.34248047 -23.17804688 3.08144531 -22 2.8125 C-20.33130859 2.40354492 -20.33130859 2.40354492 -18.62890625 1.98632812 C-12.25878441 0.48946204 -6.53992551 -0.31175492 0 0 Z " fill="#FBFCF5" transform="translate(1027,469)"/>
<path d="M0 0 C3.94139078 1.66751148 6.7892812 4.22710649 10 7 C9.01 7.33 8.02 7.66 7 8 C7 7.34 7 6.68 7 6 C6.01 6.33 5.02 6.66 4 7 C3.04187968 13.98059091 2.50343987 20.97326485 2 28 C2.66 28 3.32 28 4 28 C3.98839844 28.61488281 3.97679687 29.22976563 3.96484375 29.86328125 C3.95582031 30.67152344 3.94679688 31.47976563 3.9375 32.3125 C3.92589844 33.11300781 3.91429687 33.91351562 3.90234375 34.73828125 C3.90342145 37.16861334 3.90342145 37.16861334 5 40 C4.4765625 41.83203125 4.4765625 41.83203125 3.625 43.8125 C2.25497869 47.19689055 1.45517383 50.35860937 1 54 C1.99 53.67 2.98 53.34 4 53 C3.7215625 54.670625 3.7215625 54.670625 3.4375 56.375 C2.68319343 59.82568861 2.68319343 59.82568861 4 62 C4.084915 63.8863912 4.107193 65.77578515 4.09765625 67.6640625 C4.09282227 69.34628906 4.09282227 69.34628906 4.08789062 71.0625 C4.07532227 72.8259375 4.07532227 72.8259375 4.0625 74.625 C4.05798828 75.80835938 4.05347656 76.99171875 4.04882812 78.2109375 C4.03701467 81.14067507 4.02054258 84.07031272 4 87 C3.34 87 2.68 87 2 87 C2 88.32 2 89.64 2 91 C6.95 90.505 6.95 90.505 12 90 C12 90.99 12 91.98 12 93 C8.04 93 4.08 93 0 93 C-0.33 64.62 -0.66 36.24 -1 7 C-3.64 9.31 -6.28 11.62 -9 14 C-10.25248535 14.92627197 -11.5049707 15.85254395 -12.79541016 16.80688477 C-19.58491798 22.27390255 -23.17783415 27.4094292 -24.21777344 36.21044922 C-24.81123258 44.02682004 -24.63103321 51.86937691 -24.42486572 59.69793701 C-24.34111915 63.45915238 -24.33836453 67.22041546 -24.328125 70.98242188 C-24.29653868 78.32393726 -24.17726574 85.66040009 -24 93 C-26.64 93 -29.28 93 -32 93 C-32.33 75.51 -32.66 58.02 -33 40 C-34.65 41.98 -36.3 43.96 -38 46 C-40.5625 48.875 -40.5625 48.875 -43 51 C-47 51 -47 51 -56 45 C-56 60.51 -56 76.02 -56 92 C-58.31 92 -60.62 92 -63 92 C-62.99254257 91.3287207 -62.98508514 90.65744141 -62.97740173 89.96582031 C-62.90840494 82.95696118 -62.90257772 75.95003638 -62.93286133 68.94091797 C-62.93593695 66.32793161 -62.92309204 63.71487475 -62.89379883 61.10205078 C-62.85439122 57.33754906 -62.87289428 53.57701704 -62.90234375 49.8125 C-62.87776596 48.65073242 -62.85318817 47.48896484 -62.8278656 46.29199219 C-62.91270665 41.46437962 -62.97529752 38.26932598 -66.07693481 34.42724609 C-68.30067749 32.43879575 -70.52726077 30.66487415 -73 29 C-78.44544381 31.42005126 -82.53482426 35.18346634 -86 40 C-87.21040513 44.11705552 -87.19382957 47.98486299 -87.09765625 52.25390625 C-87.10711777 53.39536606 -87.11657928 54.53682587 -87.12632751 55.71287537 C-87.14679767 59.33076225 -87.10561579 62.94486862 -87.0625 66.5625 C-87.06557681 69.02670119 -87.07269657 71.49090086 -87.08398438 73.95507812 C-87.10276429 79.97082437 -87.07103822 85.98467941 -87 92 C-89.64 92 -92.28 92 -95 92 C-95.495 71.21 -95.495 71.21 -96 50 C-99.3 52.97 -102.6 55.94 -106 59 C-107.98871249 60.68011917 -109.98270357 62.35431081 -112 64 C-112.66 62.35 -113.32 60.7 -114 59 C-113.48050781 58.63648438 -112.96101562 58.27296875 -112.42578125 57.8984375 C-107.90163758 54.63704003 -104.54268371 51.33978754 -101 47 C-99.83123231 45.94501528 -98.64151444 44.91301127 -97.4375 43.8984375 C-92.5568429 39.68226477 -88.03443959 35.14494262 -83.5 30.5625 C-82.26636719 29.32209961 -82.26636719 29.32209961 -81.0078125 28.05664062 C-79.00287887 26.04005041 -77.00033747 24.02114764 -75 22 C-70.91130768 23.90949337 -67.75072072 26.61251702 -64.375 29.5625 C-63.75834473 30.09319092 -63.14168945 30.62388184 -62.50634766 31.1706543 C-59.61637111 33.66872512 -56.76627784 36.1933957 -54 38.828125 C-53.13375 39.64796875 -52.2675 40.4678125 -51.375 41.3125 C-50.24191406 42.42044922 -50.24191406 42.42044922 -49.0859375 43.55078125 C-47.15625492 45.23155454 -47.15625492 45.23155454 -45.08105469 44.78149414 C-42.65218816 43.86938694 -41.43160522 42.7904024 -39.6171875 40.9453125 C-38.70259766 40.02298828 -38.70259766 40.02298828 -37.76953125 39.08203125 C-37.14433594 38.43621094 -36.51914062 37.79039062 -35.875 37.125 C-35.24207031 36.48691406 -34.60914063 35.84882812 -33.95703125 35.19140625 C-31.34719931 32.53724595 -29.07345427 30.11018141 -27 27 C-26.34 27 -25.68 27 -25 27 C-24.62742065 26.13846313 -24.62742065 26.13846313 -24.24731445 25.25952148 C-22.81263061 22.66057864 -21.15681942 20.93040329 -19.04296875 18.84765625 C-18.25986328 18.07099609 -17.47675781 17.29433594 -16.66992188 16.49414062 C-15.85072266 15.69169922 -15.03152344 14.88925781 -14.1875 14.0625 C-13.37990234 13.26392578 -12.57230469 12.46535156 -11.74023438 11.64257812 C-10.18475458 10.10493348 -8.62738662 8.56919588 -7.06787109 7.03564453 C-4.69867694 4.70337288 -2.34602531 2.35554266 0 0 Z " fill="#DFC16F" transform="translate(1010,497)"/>
<path d="M0 0 C3.03237884 1.36261591 4.68765662 3.40393272 6.87109375 5.890625 C7.6703125 6.78652344 8.46953125 7.68242187 9.29296875 8.60546875 C11.12109375 10.953125 11.12109375 10.953125 11.12109375 12.953125 C9.3984375 14.43359375 9.3984375 14.43359375 7.05859375 16.140625 C-3.19726108 23.98900217 -11.34941434 33.46168851 -13.61328125 46.67578125 C-14.12881724 51.09574419 -14.56362122 55.51424371 -14.87890625 59.953125 C-11.90890625 58.963125 -8.93890625 57.973125 -5.87890625 56.953125 C-6.53890625 58.273125 -7.19890625 59.593125 -7.87890625 60.953125 C-10.55681088 61.79198669 -13.05270035 61.77078914 -15.87890625 61.953125 C-16.37390625 58.488125 -16.37390625 58.488125 -16.87890625 54.953125 C-17.49765625 54.870625 -18.11640625 54.788125 -18.75390625 54.703125 C-20.87890625 53.953125 -20.87890625 53.953125 -22.01171875 51.90625 C-22.29789063 51.26171875 -22.5840625 50.6171875 -22.87890625 49.953125 C-22.96978516 51.00113281 -22.96978516 51.00113281 -23.0625 52.0703125 C-23.14628906 52.98039062 -23.23007812 53.89046875 -23.31640625 54.828125 C-23.39761719 55.73304688 -23.47882812 56.63796875 -23.5625 57.5703125 C-23.87890625 59.953125 -23.87890625 59.953125 -24.87890625 61.953125 C-29.45018525 61.40457152 -33.5532642 60.53567697 -37.87890625 58.953125 C-37.87890625 58.293125 -37.87890625 57.633125 -37.87890625 56.953125 C-32.97194393 57.53728718 -30.56902262 58.60806681 -25.87890625 60.953125 C-25.87890625 56.003125 -25.87890625 51.053125 -25.87890625 45.953125 C-26.86890625 46.448125 -26.86890625 46.448125 -27.87890625 46.953125 C-36.14256384 47.3972966 -44.95235866 47.65649491 -52.87890625 44.953125 C-53.53890625 44.293125 -54.19890625 43.633125 -54.87890625 42.953125 C-53.22375 43.18322266 -53.22375 43.18322266 -51.53515625 43.41796875 C-46.49377215 44.04814176 -41.45204146 44.29072584 -36.37890625 44.515625 C-35.0021875 44.58040039 -35.0021875 44.58040039 -33.59765625 44.64648438 C-31.35818564 44.75145956 -29.11862533 44.85361748 -26.87890625 44.953125 C-27.17925781 43.70015625 -27.47960937 42.4471875 -27.7890625 41.15625 C-28.17365428 39.50531943 -28.5577426 37.85427151 -28.94140625 36.203125 C-29.14056641 35.378125 -29.33972656 34.553125 -29.54492188 33.703125 C-29.72861328 32.90390625 -29.91230469 32.1046875 -30.1015625 31.28125 C-30.27437744 30.5480957 -30.44719238 29.81494141 -30.62524414 29.05957031 C-30.90315053 26.75179717 -30.57699866 25.15396463 -29.87890625 22.953125 C-29.20525964 25.03421185 -28.54023827 27.1180921 -27.87890625 29.203125 C-27.50765625 30.36328125 -27.13640625 31.5234375 -26.75390625 32.71875 C-25.87890625 35.953125 -25.87890625 35.953125 -25.87890625 39.953125 C-25.21890625 39.953125 -24.55890625 39.953125 -23.87890625 39.953125 C-23.78867187 38.79554688 -23.6984375 37.63796875 -23.60546875 36.4453125 C-23.02033181 31.81110952 -21.41545941 28.18074686 -19.25390625 24.078125 C-18.89635254 23.38412598 -18.53879883 22.69012695 -18.17041016 21.97509766 C-6.53260875 -0.16297569 -6.53260875 -0.16297569 0 0 Z " fill="#E0B440" transform="translate(972.87890625,390.046875)"/>
<path d="M0 0 C0.495 1.98 0.495 1.98 1 4 C0.24976563 4.3403125 -0.50046875 4.680625 -1.2734375 5.03125 C-16.44755247 12.21697699 -27.23989555 21.98305529 -33 38 C-33.80227566 41.17897024 -34.52141663 44.34461649 -35.12890625 47.56640625 C-36 50 -36 50 -38.08984375 51.33984375 C-38.72019531 51.55769531 -39.35054687 51.77554688 -40 52 C-42.28504511 49.71495489 -41.37222265 44.01810219 -41.3828125 40.85107422 C-41.13162854 28.27356072 -34.70832356 18.19620163 -26.28125 9.15625 C-18.4806524 1.94437675 -10.55320091 -0.90284038 0 0 Z " fill="#FAF8E0" transform="translate(899,460)"/>
<path d="M0 0 C1.07310858 3.27185553 0.89263102 5.42947592 0.0625 8.75 C-0.13214844 9.54921875 -0.32679688 10.3484375 -0.52734375 11.171875 C-0.68332031 11.77515625 -0.83929687 12.3784375 -1 13 C-0.01 12.67 0.98 12.34 2 12 C2.125 14.875 2.125 14.875 2 18 C1.34 18.66 0.68 19.32 0 20 C-0.64767793 22.57061311 -0.64767793 22.57061311 -1 25 C-1.66 24.34 -2.32 23.68 -3 23 C-5.97036938 27.77842031 -7.12658444 31.06524062 -7.1328125 36.69140625 C-7.13474609 38.35526367 -7.13474609 38.35526367 -7.13671875 40.05273438 C-7.13285156 41.21095703 -7.12898437 42.36917969 -7.125 43.5625 C-7.12886719 44.72458984 -7.13273438 45.88667969 -7.13671875 47.08398438 C-7.13542969 48.19193359 -7.13414062 49.29988281 -7.1328125 50.44140625 C-7.13168457 51.45920166 -7.13055664 52.47699707 -7.12939453 53.52563477 C-7.16521806 56.00280887 -7.16521806 56.00280887 -6 58 C-5.81636135 59.60027963 -5.67776496 61.20584757 -5.5625 62.8125 C-5.0320962 69.26289459 -4.04545383 75.61562659 -3 82 C-1.02 81.505 -1.02 81.505 1 81 C1 82.98 1 84.96 1 87 C1.66 87.33 2.32 87.66 3 88 C3 87.01 3 86.02 3 85 C3.99 85.33 4.98 85.66 6 86 C6.67784992 88.33010909 7.34416793 90.66359824 8 93 C9.485 93.99 9.485 93.99 11 95 C14.23111931 99.90651451 14.68226078 104.29381892 14 110 C13.566875 110.99 13.13375 111.98 12.6875 113 C11.83517594 116.71923224 12.56968496 117.52750592 14.4375 120.75 C15.17806641 121.88695312 15.17806641 121.88695312 15.93359375 123.046875 C16.28550781 123.69140625 16.63742187 124.3359375 17 125 C16.67 125.66 16.34 126.32 16 127 C11.67336909 120.85780415 8.11336814 114.616494 4.9375 107.8125 C4.28962524 106.43276001 4.28962524 106.43276001 3.62866211 105.02514648 C-1.79781173 93.31031694 -5.70389278 81.74339507 -8 69 C-8.20625 67.9378125 -8.4125 66.875625 -8.625 65.78125 C-12.60133113 42.58598506 -9.44771863 21.3518441 0 0 Z " fill="#E1B660" transform="translate(847,475)"/>
<path d="M0 0 C0.70511719 0.73089844 1.41023437 1.46179688 2.13671875 2.21484375 C15.87549468 15.57875539 30.83046976 22.2753461 49.9375 22.0625 C51.10635742 22.05573242 51.10635742 22.05573242 52.29882812 22.04882812 C54.19925268 22.03716908 56.09963706 22.01923877 58 22 C58 26.95 58 31.9 58 37 C53.31059705 35.48728937 48.7283093 33.91346907 44.1875 32 C31.59620865 26.99035512 19.40513235 26.34096809 6 26 C6 25.67 6 25.34 6 25 C7.2375 24.87625 8.475 24.7525 9.75 24.625 C12.8762197 24.24253695 15.28879237 23.69450477 18 22 C18 21.34 18 20.68 18 20 C17.34 20 16.68 20 16 20 C16 18.35 16 16.7 16 15 C15.236875 14.71125 14.47375 14.4225 13.6875 14.125 C11 13 11 13 8 11 C8 10.34 8 9.68 8 9 C5.69 9.33 3.38 9.66 1 10 C-0.125 6.25 -0.125 6.25 1 4 C0.34 4 -0.32 4 -1 4 C-0.67 2.68 -0.34 1.36 0 0 Z " fill="#FBFBE6" transform="translate(889,414)"/>
<path d="M0 0 C1.34444159 0.90029571 2.67531438 1.82088022 4 2.75 C5.11375 3.51570312 5.11375 3.51570312 6.25 4.296875 C6.8275 4.85890625 7.405 5.4209375 8 6 C8 7.32 8 8.64 8 10 C7.34 10 6.68 10 6 10 C6 25.51 6 41.02 6 57 C3.69 57 1.38 57 -1 57 C-1.02312916 49.71578452 -1.04091801 42.4315769 -1.05181217 35.14733219 C-1.05703975 31.76528187 -1.06413511 28.3832566 -1.07543945 25.0012207 C-1.08834267 21.11670223 -1.09322924 17.23219403 -1.09765625 13.34765625 C-1.10281754 12.12788589 -1.10797882 10.90811554 -1.11329651 9.65138245 C-1.11337204 8.53029587 -1.11344757 7.40920929 -1.11352539 6.25415039 C-1.115746 5.26153702 -1.11796661 4.26892365 -1.12025452 3.24623108 C-1 1 -1 1 0 0 Z " fill="#E6B93E" transform="translate(948,532)"/>
<path d="M0 0 C0.66 0.99 1.32 1.98 2 3 C2.53625 3.680625 3.0725 4.36125 3.625 5.0625 C5 7 5 7 5 9 C5.66 9 6.32 9 7 9 C7.625 11.375 7.625 11.375 8 14 C7.34 14.66 6.68 15.32 6 16 C6.50256112 18.01432266 6.50256112 18.01432266 8 20 C11.38943476 21.49225511 11.38943476 21.49225511 15 22 C15.99 21.34 16.98 20.68 18 20 C18.33 21.32 18.66 22.64 19 24 C20.32 24.33 21.64 24.66 23 25 C23.38218767 26.65614657 23.71395102 28.32457024 24 30 C23.67 30.33 23.34 30.66 23 31 C25.31 32.98 27.62 34.96 30 37 C30.495 36.01 30.495 36.01 31 35 C31.66 35 32.32 35 33 35 C33.33 35.66 33.66 36.32 34 37 C36.475 36.505 36.475 36.505 39 36 C39.66 36.99 40.32 37.98 41 39 C44.49931956 40.03839157 47.92717935 40.16221961 51.5625 40.1875 C52.49191406 40.20167969 53.42132812 40.21585938 54.37890625 40.23046875 C57.13075219 39.98850316 58.59996036 39.29640696 61 38 C63.28214587 37.43045233 65.56808275 36.99894558 67.87890625 36.5625 C70.27653722 36.04883659 70.27653722 36.04883659 73 34 C75.64818868 33.80362396 78.16731932 33.72122197 80.8125 33.75 C81.51181641 33.74226562 82.21113281 33.73453125 82.93164062 33.7265625 C87.33179782 33.74302707 90.91337032 34.38331133 95 36 C94.505 36.99 94.505 36.99 94 38 C93.113125 37.835 92.22625 37.67 91.3125 37.5 C81.02071239 36.13602815 72.86926551 36.87240765 63.19140625 40.80859375 C53.3014315 44.50068959 41.93592746 44.19459045 32.10546875 40.51953125 C25.85523383 37.4612402 20.42305225 33.32521485 15 29 C14.113125 28.29875 13.22625 27.5975 12.3125 26.875 C4.85273159 20.56288827 -1.30732362 12.9130158 -7 5 C-7 4.34 -7 3.68 -7 3 C-5.68 3 -4.36 3 -3 3 C-2.01 2.67 -1.02 2.34 0 2 C0 1.34 0 0.68 0 0 Z " fill="#DDB859" transform="translate(871,599)"/>
<path d="M0 0 C0.66 0.99 1.32 1.98 2 3 C1.54625 3.4125 1.0925 3.825 0.625 4.25 C-1.05950374 6.06408095 -1.99265971 7.75285627 -3 10 C-3.33 10 -3.66 10 -4 10 C-4.33 15.94 -4.66 21.88 -5 28 C-11 30 -11 30 -15 30 C-15 32.64 -15 35.28 -15 38 C-7.95643918 37.88142563 -0.9130075 37.75662721 6.13037109 37.62768555 C8.5219478 37.58461587 10.91354976 37.54292373 13.30517578 37.50268555 C16.7608193 37.44429858 20.21633895 37.38080859 23.671875 37.31640625 C24.72550232 37.29969376 25.77912964 37.28298126 26.86468506 37.26576233 C33.08042035 37.14423709 39.22697979 36.78734258 45.41625977 36.19580078 C48.7796783 35.94091449 51.89385604 36.10918157 55.25 36.4375 C56.34828125 36.53933594 57.4465625 36.64117188 58.578125 36.74609375 C59.37734375 36.82988281 60.1765625 36.91367187 61 37 C61 37.33 61 37.66 61 38 C81.79 38.33 102.58 38.66 124 39 C124 35.7 124 32.4 124 29 C124.33 29 124.66 29 125 29 C125 32.63 125 36.26 125 40 C78.47 40 31.94 40 -16 40 C-16 36.04 -16 32.08 -16 28 C-13.03 28 -10.06 28 -7 28 C-7.08121094 26.56527344 -7.16242187 25.13054688 -7.24609375 23.65234375 C-7.3117794 21.74745985 -7.37547653 19.84250666 -7.4375 17.9375 C-7.49615234 16.99455078 -7.55480469 16.05160156 -7.61523438 15.08007812 C-7.78524894 8.10948077 -7.78524894 8.10948077 -5.41064453 4.75439453 C-3.68351381 3.02726381 -1.94662351 1.47258667 0 0 Z " fill="#FDF3CD" transform="translate(898,561)"/>
<path d="M0 0 C0.495 0.99 0.495 0.99 1 2 C-0.34938256 5.32822571 -1.83619337 8.55200711 -3.375 11.79492188 C-5.42836424 16.26474524 -6.54990131 20.09392423 -7 25 C-4.36 25.33 -1.72 25.66 1 26 C1 24.68 1 23.36 1 22 C1.66 22 2.32 22 3 22 C2.80083984 22.99966797 2.80083984 22.99966797 2.59765625 24.01953125 C1.32379789 30.66777016 0.49610861 37.25031187 0 44 C2.97 43.01 5.94 42.02 9 41 C8.34 42.32 7.68 43.64 7 45 C4.32209537 45.83886169 1.8262059 45.81766414 -1 46 C-1.495 42.535 -1.495 42.535 -2 39 C-2.61875 38.9175 -3.2375 38.835 -3.875 38.75 C-6 38 -6 38 -7.1328125 35.953125 C-7.41898438 35.30859375 -7.70515625 34.6640625 -8 34 C-8.09087891 35.04800781 -8.09087891 35.04800781 -8.18359375 36.1171875 C-8.26738281 37.02726562 -8.35117187 37.93734375 -8.4375 38.875 C-8.51871094 39.77992188 -8.59992187 40.68484375 -8.68359375 41.6171875 C-9 44 -9 44 -10 46 C-14.571279 45.45144652 -18.67435795 44.58255197 -23 43 C-23 42.34 -23 41.68 -23 41 C-18.09303768 41.58416218 -15.69011637 42.65494181 -11 45 C-11 40.05 -11 35.1 -11 30 C-11.66 30.33 -12.32 30.66 -13 31 C-21.26365759 31.4441716 -30.07345241 31.70336991 -38 29 C-38.66 28.34 -39.32 27.68 -40 27 C-38.8965625 27.15339844 -37.793125 27.30679687 -36.65625 27.46484375 C-31.6148659 28.09501676 -26.57313521 28.33760084 -21.5 28.5625 C-20.5821875 28.60568359 -19.664375 28.64886719 -18.71875 28.69335938 C-16.47927939 28.79833456 -14.23971908 28.90049248 -12 29 C-12.30035156 27.74703125 -12.60070312 26.4940625 -12.91015625 25.203125 C-13.29474803 23.55219443 -13.67883635 21.90114651 -14.0625 20.25 C-14.26166016 19.425 -14.46082031 18.6 -14.66601562 17.75 C-14.84970703 16.95078125 -15.03339844 16.1515625 -15.22265625 15.328125 C-15.39547119 14.5949707 -15.56828613 13.86181641 -15.74633789 13.10644531 C-16.02424428 10.79867217 -15.69809241 9.20083963 -15 7 C-14.32635339 9.08108685 -13.66133202 11.1649671 -13 13.25 C-12.62875 14.41015625 -12.2575 15.5703125 -11.875 16.765625 C-11 20 -11 20 -11 24 C-10.34 24 -9.68 24 -9 24 C-8.91878906 22.8553125 -8.83757813 21.710625 -8.75390625 20.53125 C-8.14204148 15.63633181 -6.2470212 11.8079152 -3.9375 7.5 C-3.56044922 6.77296875 -3.18339844 6.0459375 -2.79492188 5.296875 C-1.87427046 3.52549507 -0.93867864 1.76189339 0 0 Z " fill="#D8B454" transform="translate(958,406)"/>
<path d="M0 0 C3.94139078 1.66751148 6.7892812 4.22710649 10 7 C9.01 7.33 8.02 7.66 7 8 C7 7.34 7 6.68 7 6 C6.01 6.33 5.02 6.66 4 7 C3.04187968 13.98059091 2.50343987 20.97326485 2 28 C2.66 28 3.32 28 4 28 C3.98839844 28.61488281 3.97679687 29.22976563 3.96484375 29.86328125 C3.95582031 30.67152344 3.94679688 31.47976563 3.9375 32.3125 C3.92589844 33.11300781 3.91429687 33.91351562 3.90234375 34.73828125 C3.90342145 37.16861334 3.90342145 37.16861334 5 40 C4.4765625 41.83203125 4.4765625 41.83203125 3.625 43.8125 C2.25497869 47.19689055 1.45517383 50.35860937 1 54 C2.485 53.505 2.485 53.505 4 53 C3.814375 54.11375 3.62875 55.2275 3.4375 56.375 C2.68319343 59.82568861 2.68319343 59.82568861 4 62 C4.084915 63.8863912 4.107193 65.77578515 4.09765625 67.6640625 C4.09443359 68.78554688 4.09121094 69.90703125 4.08789062 71.0625 C4.07951172 72.238125 4.07113281 73.41375 4.0625 74.625 C4.05798828 75.80835938 4.05347656 76.99171875 4.04882812 78.2109375 C4.03701467 81.14067507 4.02054258 84.07031272 4 87 C3.34 87 2.68 87 2 87 C2 88.32 2 89.64 2 91 C6.95 90.505 6.95 90.505 12 90 C12 90.99 12 91.98 12 93 C8.04 93 4.08 93 0 93 C0 63.96 0 34.92 0 5 C-0.66 5 -1.32 5 -2 5 C-1.34 3.35 -0.68 1.7 0 0 Z " fill="#DDB75E" transform="translate(1010,497)"/>
<path d="M0 0 C0.66 0 1.32 0 2 0 C3.19960121 6.570826 3.12713266 13.05044374 3.09765625 19.71484375 C3.0962413 20.92572159 3.09482635 22.13659943 3.09336853 23.38417053 C3.08779026 27.23530594 3.0752417 31.08638229 3.0625 34.9375 C3.05748219 37.5553377 3.05291978 40.17317631 3.04882812 42.79101562 C3.03782794 49.19403042 3.02111144 55.59701099 3 62 C1.35 62 -0.3 62 -2 62 C-2.04640556 54.65450492 -2.08191089 47.30904161 -2.10362434 39.96342945 C-2.11404739 36.55230838 -2.12817938 33.14128783 -2.15087891 29.73022461 C-2.17683004 25.80583919 -2.18648505 21.88149404 -2.1953125 17.95703125 C-2.20563507 16.73603226 -2.21595764 15.51503326 -2.22659302 14.2570343 C-2.22674408 13.1162291 -2.22689514 11.97542389 -2.22705078 10.80004883 C-2.231492 9.79855301 -2.23593323 8.79705719 -2.24050903 7.76521301 C-1.98550248 4.83331709 -1.22694662 2.66034677 0 0 Z " fill="#E7C24A" transform="translate(982,526)"/>
<path d="M0 0 C2.69505571 1.25689024 4.89313981 2.59100014 7.13671875 4.5390625 C7.71019043 5.03349854 8.28366211 5.52793457 8.87451172 6.03735352 C9.47279785 6.56127686 10.07108398 7.0852002 10.6875 7.625 C11.61199951 8.42925415 11.61199951 8.42925415 12.55517578 9.24975586 C13.79295444 10.32776382 15.02930679 11.40741189 16.26416016 12.48876953 C17.80302401 13.82851176 19.35928921 15.14820816 20.91796875 16.46484375 C22.13419922 17.50318359 22.13419922 17.50318359 23.375 18.5625 C24.08398438 19.16191406 24.79296875 19.76132812 25.5234375 20.37890625 C27 22 27 22 27 25 C28.32 25 29.64 25 31 25 C31 25.99 31 26.98 31 28 C26.85409858 27.52887484 23.95623138 27.06572143 21 24 C20.7525 22.7315625 20.7525 22.7315625 20.5 21.4375 C20.2525 20.2309375 20.2525 20.2309375 20 19 C18.13355094 17.81669817 18.13355094 17.81669817 16 17 C15.484375 16.46375 14.96875 15.9275 14.4375 15.375 C12.97021721 13.65438868 12.97021721 13.65438868 10 14 C7.95703125 12.46875 7.95703125 12.46875 5.8125 10.5 C5.09707031 9.8503125 4.38164063 9.200625 3.64453125 8.53125 C3.10183594 8.0259375 2.55914063 7.520625 2 7 C-3.44544381 9.42005126 -7.53482426 13.18346634 -11 18 C-12.21040513 22.11705552 -12.19382957 25.98486299 -12.09765625 30.25390625 C-12.11184853 31.96609596 -12.11184853 31.96609596 -12.12632751 33.71287537 C-12.14679767 37.33076225 -12.10561579 40.94486862 -12.0625 44.5625 C-12.06557681 47.02670119 -12.07269657 49.49090086 -12.08398438 51.95507812 C-12.10276429 57.97082437 -12.07103822 63.98467941 -12 70 C-12.33 70 -12.66 70 -13 70 C-13.50191863 62.28440617 -13.88752901 54.56897522 -14.19628906 46.84326172 C-14.31435977 44.22151143 -14.45810496 41.60077727 -14.62890625 38.98193359 C-16.10046509 15.98882667 -16.10046509 15.98882667 -10.85253906 9.07128906 C-7.57754905 5.51888216 -4.00438372 2.68861184 0 0 Z " fill="#DCBF71" transform="translate(935,519)"/>
<path d="M0 0 C2.89315046 1.50221274 4.63664116 3.54971632 6.78125 5.9921875 C7.58046875 6.88808594 8.3796875 7.78398437 9.203125 8.70703125 C11.03125 11.0546875 11.03125 11.0546875 11.03125 13.0546875 C9.16796875 14.7109375 9.16796875 14.7109375 6.71875 16.5546875 C5.91824219 17.163125 5.11773438 17.7715625 4.29296875 18.3984375 C2.56981725 19.66029629 0.80832297 20.86997219 -0.96875 22.0546875 C-1.030625 21.2709375 -1.0925 20.4871875 -1.15625 19.6796875 C-1.424375 18.8134375 -1.6925 17.9471875 -1.96875 17.0546875 C-4.44511012 15.68002125 -4.44511012 15.68002125 -6.96875 15.0546875 C-6.96875 13.0746875 -6.96875 11.0946875 -6.96875 9.0546875 C-7.95875 8.7246875 -8.94875 8.3946875 -9.96875 8.0546875 C-8.73475937 6.68591634 -7.48094377 5.33499584 -6.21875 3.9921875 C-5.52265625 3.23808594 -4.8265625 2.48398437 -4.109375 1.70703125 C-1.96875 0.0546875 -1.96875 0.0546875 0 0 Z " fill="#E3B74E" transform="translate(972.96875,389.9453125)"/>
<path d="M0 0 C0.99 1.32 1.98 2.64 3 4 C2.34 5.32 1.68 6.64 1 8 C0.01 8 -0.98 8 -2 8 C-2.268125 8.556875 -2.53625 9.11375 -2.8125 9.6875 C-3.204375 10.450625 -3.59625 11.21375 -4 12 C-4.5878125 13.175625 -4.5878125 13.175625 -5.1875 14.375 C-6.81123176 16.72661152 -8.07423217 17.98796878 -10.25 19.75 C-13.8295974 22.68286342 -16.45767041 25.98286365 -19.22265625 29.67578125 C-21.97221935 33.27136377 -24.97995369 36.63113375 -28 40 C-28.99 39.67 -29.98 39.34 -31 39 C-31.99 39.66 -32.98 40.32 -34 41 C-34.99 40.505 -34.99 40.505 -36 40 C-36 40.66 -36 41.32 -36 42 C-37.65 42.66 -39.3 43.32 -41 44 C-40.34 44.66 -39.68 45.32 -39 46 C-40.75 47.0625 -40.75 47.0625 -43 48 C-43.55429687 47.85433594 -44.10859375 47.70867188 -44.6796875 47.55859375 C-49.10760235 46.49261425 -53.74401377 46.98988399 -58.2734375 47.0625 C-61.64049377 47.00602945 -64.70356519 46.65316355 -68 46 C-68 45.34 -68 44.68 -68 44 C-67.12859375 44.03480469 -66.2571875 44.06960938 -65.359375 44.10546875 C-47.33023228 44.51522199 -34.21924762 39.15715599 -21 27 C-13.17845004 19.27368961 -4.96892734 9.93785468 0 0 Z " fill="#FCF7D7" transform="translate(1044,597)"/>
<path d="M0 0 C0.99 0.99 1.98 1.98 3 3 C-1.75 7 -1.75 7 -4 7 C-4.12117187 7.69867188 -4.24234375 8.39734375 -4.3671875 9.1171875 C-4.61855469 10.48230469 -4.61855469 10.48230469 -4.875 11.875 C-5.03742187 12.77992188 -5.19984375 13.68484375 -5.3671875 14.6171875 C-6 17 -6 17 -8 19 C-8.845625 19.28875 -9.69125 19.5775 -10.5625 19.875 C-11.7690625 20.431875 -11.7690625 20.431875 -13 21 C-13.74276031 22.97080157 -13.74276031 22.97080157 -14 25 C-14.66 25.66 -15.32 26.32 -16 27 C-16.24287489 29.44012949 -16.24287489 29.44012949 -16.125 32.125 C-16.10695313 33.03507812 -16.08890625 33.94515625 -16.0703125 34.8828125 C-16.04710937 35.58148438 -16.02390625 36.28015625 -16 37 C-11.545 36.505 -11.545 36.505 -7 36 C-7 35.34 -7 34.68 -7 34 C-6.34 34.33 -5.68 34.66 -5 35 C-5.33 35.66 -5.66 36.32 -6 37 C-4.35 37 -2.7 37 -1 37 C-4.21963674 39.14642449 -7.44429859 40.35881354 -11.0625 41.625 C-12.01866211 41.96917969 -12.01866211 41.96917969 -12.99414062 42.3203125 C-17.738258 44 -17.738258 44 -20 44 C-20.65286398 31.49886377 -18.09515462 19.15455407 -9.64941406 9.44775391 C-6.56433139 6.15679622 -3.31894015 3.05318872 0 0 Z " fill="#F9F7DD" transform="translate(978,406)"/>
<path d="M0 0 C1.00506441 3.01519322 1.0915426 4.88058283 1.02172852 8.0222168 C0.99158409 9.55346443 0.99158409 9.55346443 0.96083069 11.11564636 C0.93379562 12.21572525 0.90676056 13.31580414 0.87890625 14.44921875 C0.85529526 15.5769722 0.83168427 16.70472565 0.80735779 17.86665344 C0.73069718 21.47372958 0.64668276 25.08059233 0.5625 28.6875 C0.50928174 31.13084888 0.45654133 33.57420823 0.40429688 36.01757812 C0.27507873 42.01185119 0.13982023 48.00596537 0 54 C-1.32 54 -2.64 54 -4 54 C-4.02467203 48.05517888 -4.04284663 42.1103874 -4.05493164 36.16552734 C-4.05996831 34.14208457 -4.06679789 32.11864544 -4.07543945 30.09521484 C-4.08753412 27.19107157 -4.09323488 24.28697631 -4.09765625 21.3828125 C-4.10539818 20.02024826 -4.10539818 20.02024826 -4.11329651 18.63015747 C-4.11337204 17.78943695 -4.11344757 16.94871643 -4.11352539 16.08251953 C-4.115746 15.34083527 -4.11796661 14.599151 -4.12025452 13.83499146 C-4 12 -4 12 -3 10 C-4.98 10.33 -6.96 10.66 -9 11 C-8.60167969 10.54109375 -8.20335937 10.0821875 -7.79296875 9.609375 C-5.08857938 6.47728415 -2.42008229 3.36122541 0 0 Z " fill="#EBBF42" transform="translate(921,534)"/>
<path d="M0 0 C0 2.62113708 -0.31292445 4.50935112 -1 7 C-0.01 7 0.98 7 2 7 C2.43721674 12.33404425 2.43721674 12.33404425 2 15 C-0.3125 16.5625 -0.3125 16.5625 -3 18 C-4.07136051 20.30144109 -5.07989717 22.6340213 -6 25 C-6.66 25.33 -7.32 25.66 -8 26 C-8.66 26.99 -9.32 27.98 -10 29 C-10.66 29 -11.32 29 -12 29 C-13.485 32.465 -13.485 32.465 -15 36 C-16.65 36 -18.3 36 -20 36 C-19 34 -19 34 -16 33 C-14.95375249 29.88797646 -14.95375249 29.88797646 -14.1875 26.125 C-11.70583418 15.83576361 -7.23513507 7.75193044 0 0 Z " fill="#E5B04A" transform="translate(878,477)"/>
<path d="M0 0 C0.598125 0.185625 1.19625 0.37125 1.8125 0.5625 C4.16408762 1.22093687 4.16408762 1.22093687 7 0 C6.71125 0.70125 6.4225 1.4025 6.125 2.125 C5.69434336 4.96737996 5.69434336 4.96737996 7.26953125 6.66796875 C8.80013459 8.17706479 10.35721507 9.61434662 12 11 C12.33 10.01 12.66 9.02 13 8 C16.48670834 9.1094072 19.77484237 10.26337666 23 12 C23 13.32 23 14.64 23 16 C23.99 16.33 24.98 16.66 26 17 C25.34 18.32 24.68 19.64 24 21 C25.98 21.33 27.96 21.66 30 22 C27 24 27 24 24.375 23.5 C14.67531884 19.1890306 5.44598182 12.23113231 0 3 C0 2.01 0 1.02 0 0 Z " fill="#DAB559" transform="translate(887,408)"/>
<path d="M0 0 C0.66 0 1.32 0 2 0 C2 17.49 2 34.98 2 53 C3.32 53 4.64 53 6 53 C6 38.15 6 23.3 6 8 C6.33 8 6.66 8 7 8 C7 23.51 7 39.02 7 55 C4.69 55 2.38 55 0 55 C0 36.85 0 18.7 0 0 Z " fill="#D7B658" transform="translate(947,534)"/>
<path d="M0 0 C1.65 0 3.3 0 5 0 C4.319375 0.495 3.63875 0.99 2.9375 1.5 C-8.47968451 11.21675277 -17.31876153 26.18810979 -20 41 C-20.66 41 -21.32 41 -22 41 C-22.53293835 39.25364835 -23.05090663 37.50272348 -23.5625 35.75 C-23.85253906 34.77546875 -24.14257812 33.8009375 -24.44140625 32.796875 C-24.99249836 30.03756068 -24.93789609 28.6087176 -24 26 C-23.34 27.98 -22.68 29.96 -22 32 C-21.34 32 -20.68 32 -20 32 C-18.22804067 27.91086308 -16.98697972 23.71625346 -15.73046875 19.44921875 C-14.88383202 16.61049559 -13.95881159 13.80268002 -13 11 C-11.35 11 -9.7 11 -8 11 C-7.67 9.68 -7.34 8.36 -7 7 C-6.34 7 -5.68 7 -5 7 C-5.33 6.01 -5.66 5.02 -6 4 C-5.34 3.67 -4.68 3.34 -4 3 C-3.34 3.33 -2.68 3.66 -2 4 C-1.34 2.68 -0.68 1.36 0 0 Z " fill="#FAF4D8" transform="translate(969,389)"/>
<path d="M0 0 C6.21052298 1.2177496 8.24250212 2.95421713 12 8 C12.66 8.33 13.32 8.66 14 9 C14 9.66 14 10.32 14 11 C14.66 11 15.32 11 16 11 C16 11.99 16 12.98 16 14 C18.97 14.495 18.97 14.495 22 15 C23.74271938 12.702779 25.39911152 10.40133271 27 8 C30.125 7.3125 30.125 7.3125 33 7 C25.44683226 16.0066983 25.44683226 16.0066983 22 19 C16.96478519 19 16.24230147 17.78398925 12.6875 14.375 C9.47642729 11.32542299 6.26245786 8.34358848 2.8125 5.5625 C1.884375 4.716875 0.95625 3.87125 0 3 C0 2.01 0 1.02 0 0 Z " fill="#D6B75E" transform="translate(944,504)"/>
<path d="M0 0 C4.90674875 0.42706887 7.71420263 2.90229246 11.25 6.0625 C11.81485107 6.55621094 12.37970215 7.04992187 12.96166992 7.55859375 C14.10394807 8.55883617 15.24291061 9.56287851 16.37841797 10.57080078 C17.85053244 11.86826511 19.34780887 13.13704041 20.84765625 14.40234375 C21.66105469 15.09457031 22.47445312 15.78679688 23.3125 16.5 C24.03050781 17.1084375 24.74851562 17.716875 25.48828125 18.34375 C27 20 27 20 27 23 C28.32 23 29.64 23 31 23 C31 23.99 31 24.98 31 26 C26.85409858 25.52887484 23.95623138 25.06572143 21 22 C20.7525 20.7315625 20.7525 20.7315625 20.5 19.4375 C20.2525 18.2309375 20.2525 18.2309375 20 17 C18.13355094 15.81669817 18.13355094 15.81669817 16 15 C15.484375 14.46375 14.96875 13.9275 14.4375 13.375 C12.97021721 11.65438868 12.97021721 11.65438868 10 12 C5.49751855 8.90621572 1.32963567 5.48474712 0 0 Z " fill="#DDBA5A" transform="translate(935,521)"/>
<path d="M0 0 C3.96 0 7.92 0 12 0 C12 3.3 12 6.6 12 10 C-12.42 10 -36.84 10 -62 10 C-62 9.67 -62 9.34 -62 9 C-40.88 9 -19.76 9 2 9 C2 7.35 2 5.7 2 4 C3.65 4 5.3 4 7 4 C7.103125 4.639375 7.20625 5.27875 7.3125 5.9375 C7.539375 6.618125 7.76625 7.29875 8 8 C8.99 8.33 9.98 8.66 11 9 C11 6.36 11 3.72 11 1 C7.37 1 3.74 1 0 1 C0 0.67 0 0.34 0 0 Z " fill="#FEFCE7" transform="translate(1010,590)"/>
<path d="M0 0 C2.04173535 3.37698788 2.23525039 5.94546223 2.1953125 9.859375 C2.18886719 10.97441406 2.18242188 12.08945312 2.17578125 13.23828125 C2.15902344 14.39714844 2.14226563 15.55601562 2.125 16.75 C2.11597656 17.92433594 2.10695313 19.09867188 2.09765625 20.30859375 C2.07410063 23.20593536 2.04120652 26.10286441 2 29 C0.35 29 -1.3 29 -3 29 C-3.05807043 25.89591193 -3.09361914 22.7919636 -3.125 19.6875 C-3.14175781 18.80642578 -3.15851562 17.92535156 -3.17578125 17.01757812 C-3.18222656 16.17001953 -3.18867187 15.32246094 -3.1953125 14.44921875 C-3.20578613 13.66893311 -3.21625977 12.88864746 -3.22705078 12.0847168 C-3 10 -3 10 -1 7 C-0.60612212 4.67612053 -0.26513915 2.34206251 0 0 Z " fill="#ECBD4D" transform="translate(983,559)"/>
<path d="M0 0 C0.99 0.33 1.98 0.66 3 1 C2.54109375 1.84820312 2.0821875 2.69640625 1.609375 3.5703125 C-2.75165083 11.82880459 -5.80514159 19.87692691 -8 29 C-8.21398437 29.80308594 -8.42796875 30.60617187 -8.6484375 31.43359375 C-10.71759438 40.08506855 -10.65467254 49.14871187 -11 58 C-16.11701898 49.69499697 -12.97486549 36.02622571 -11 27 C-10.14948882 24.23015343 -9.12812754 21.67930292 -8 19 C-7.5359375 17.5459375 -7.5359375 17.5459375 -7.0625 16.0625 C-5.14106091 10.52423438 -2.64826658 5.22559745 0 0 Z " fill="#FCF6E0" transform="translate(848,469)"/>
<path d="M0 0 C-0.99 1.65 -1.98 3.3 -3 5 C-2.34 5.66 -1.68 6.32 -1 7 C-1.75023437 7.23074219 -2.50046875 7.46148437 -3.2734375 7.69921875 C-10.20583296 9.90815584 -16.59821223 12.54416767 -23 16 C-23 15.34 -23 14.68 -23 14 C-22.34 14 -21.68 14 -21 14 C-21 13.34 -21 12.68 -21 12 C-20.34 12 -19.68 12 -19 12 C-19 11.01 -19 10.02 -19 9 C-17.50390625 7.68359375 -17.50390625 7.68359375 -15.5625 6.4375 C-12.76740279 4.69463071 -12.76740279 4.69463071 -11 2 C-9.00390625 1.11328125 -9.00390625 1.11328125 -6.5625 0.3125 C-5.75941406 0.04050781 -4.95632813 -0.23148437 -4.12890625 -0.51171875 C-2 -1 -2 -1 0 0 Z " fill="#FDFBE3" transform="translate(891,435)"/>
<path d="M0 0 C0 0.66 0 1.32 0 2 C6.93 2.33 13.86 2.66 21 3 C21 3.66 21 4.32 21 5 C21.66 5.33 22.32 5.66 23 6 C21.85917969 5.83886719 20.71835937 5.67773438 19.54296875 5.51171875 C15.12137163 4.96254259 10.76492764 4.80862073 6.3125 4.8125 C5.53664551 4.81185547 4.76079102 4.81121094 3.96142578 4.81054688 C-2.83586331 4.87212413 -9.32471049 5.67909465 -16 7 C-15.67 6.01 -15.34 5.02 -15 4 C-14.34 4 -13.68 4 -13 4 C-13.33 3.01 -13.66 2.02 -14 1 C-8.83955235 -0.512545 -5.34001821 -1.33500455 0 0 Z " fill="#FDFAD7" transform="translate(993,436)"/>
<path d="M0 0 C0.93423645 3.01031744 1.04449911 3.86650268 0 7 C0.33 7.66 0.66 8.32 1 9 C1.084915 10.8863912 1.107193 12.77578515 1.09765625 14.6640625 C1.09443359 15.78554688 1.09121094 16.90703125 1.08789062 18.0625 C1.07951172 19.238125 1.07113281 20.41375 1.0625 21.625 C1.05798828 22.80835938 1.05347656 23.99171875 1.04882812 25.2109375 C1.03701467 28.14067507 1.02054258 31.07031272 1 34 C0.34 34 -0.32 34 -1 34 C-1 35.32 -1 36.64 -1 38 C3.95 37.505 3.95 37.505 9 37 C9 37.66 9 38.32 9 39 C5.37 39 1.74 39 -2 39 C-2 26.46 -2 13.92 -2 1 C-1.34 0.67 -0.68 0.34 0 0 Z " fill="#E0B252" transform="translate(1013,550)"/>
<path d="M0 0 C7.79341615 -0.32878474 15.094496 -0.05429517 22.75 1.375 C23.4409375 1.50108643 24.131875 1.62717285 24.84375 1.75708008 C29.73770664 2.73770664 29.73770664 2.73770664 32 5 C25.32956693 4.17421321 18.66458095 3.30915045 12 2.4375 C10.40865234 2.22963867 10.40865234 2.22963867 8.78515625 2.01757812 C6.19007848 1.67858148 3.59502712 1.33938408 1 1 C1.33 1.66 1.66 2.32 2 3 C4.02463255 3.65213292 4.02463255 3.65213292 6 4 C5.125 8.875 5.125 8.875 4 10 C3.82234583 15.15197086 4.15365512 19.92193071 5 25 C-0.25156219 17.12265671 -0.14687754 9.17168618 0 0 Z " fill="#DABB68" transform="translate(880,381)"/>
<path d="M0 0 C0 0.33 0 0.66 0 1 C-0.90709717 0.95456055 -0.90709717 0.95456055 -1.83251953 0.90820312 C-4.59660605 0.7706074 -7.36079946 0.63528495 -10.125 0.5 C-11.07632813 0.45230469 -12.02765625 0.40460938 -13.0078125 0.35546875 C-21.26052654 -0.25453813 -21.26052654 -0.25453813 -29.4375 0.5 C-32 1 -32 1 -35.5 0.9375 C-38.96502916 0.99937552 -40.85475373 1.72490016 -44 3 C-46.14453125 2.55859375 -46.14453125 2.55859375 -48 2 C-46.12699975 1.34838988 -44.2514945 0.70397805 -42.375 0.0625 C-41.33085938 -0.29714844 -40.28671875 -0.65679687 -39.2109375 -1.02734375 C-26.6725089 -4.82548088 -12.34264688 -4.06581309 0 0 Z " fill="#E2BC64" transform="translate(1020,443)"/>
<path d="M0 0 C1.32 0.33 2.64 0.66 4 1 C1.3581833 3.67067203 -1.2891042 6.33585333 -3.9375 9 C-4.69224609 9.763125 -5.44699219 10.52625 -6.22460938 11.3125 C-6.94326172 12.034375 -7.66191406 12.75625 -8.40234375 13.5 C-9.39995728 14.50546875 -9.39995728 14.50546875 -10.41772461 15.53125 C-12 17 -12 17 -13 17 C-13 12.33333333 -13 7.66666667 -13 3 C-10.5171713 2.11327546 -9.37970723 1.85481782 -6.875 2.8125 C-5 4 -5 4 -3 6 C-3 5.34 -3 4.68 -3 4 C-2.34 3.67 -1.68 3.34 -1 3 C-0.67 2.01 -0.34 1.02 0 0 Z " fill="#E1B451" transform="translate(991,493)"/>
<path d="M0 0 C2.4136396 2.4136396 2.75532852 4.09835899 3.625 7.375 C4.01558594 8.80972656 4.01558594 8.80972656 4.4140625 10.2734375 C5 13 5 13 5 17 C5.66 17 6.32 17 7 17 C6.67 18.98 6.34 20.96 6 23 C-2.139763 25.71325433 -13.91468719 24.75751721 -22 22 C-22.66 21.34 -23.32 20.68 -24 20 C-22.8965625 20.15339844 -21.793125 20.30679687 -20.65625 20.46484375 C-15.6148659 21.09501676 -10.57313521 21.33760084 -5.5 21.5625 C-4.5821875 21.60568359 -3.664375 21.64886719 -2.71875 21.69335938 C-0.47927939 21.79833456 1.76028092 21.90049248 4 22 C3.71125 20.74703125 3.4225 19.4940625 3.125 18.203125 C2.74977488 16.55213448 2.37478729 14.90108996 2 13.25 C1.80921875 12.425 1.6184375 11.6 1.421875 10.75 C1.15117188 9.55117188 1.15117188 9.55117188 0.875 8.328125 C0.70742188 7.5949707 0.53984375 6.86181641 0.3671875 6.10644531 C0 4 0 4 0 0 Z " fill="#D6BA61" transform="translate(942,413)"/>
<path d="M0 0 C1.22589844 0.01353516 1.22589844 0.01353516 2.4765625 0.02734375 C3.41628906 0.04474609 3.41628906 0.04474609 4.375 0.0625 C6.18145161 22.44959677 6.18145161 22.44959677 4.375 26.0625 C4.25125 26.743125 4.1275 27.42375 4 28.125 C3.79375 28.764375 3.5875 29.40375 3.375 30.0625 C2.385 30.3925 1.395 30.7225 0.375 31.0625 C0.89617449 21.26990558 1.87533541 11.76033099 3.375 2.0625 C-3.06 2.5575 -3.06 2.5575 -9.625 3.0625 C-5.93535266 0.60273511 -4.35071521 -0.06215307 0 0 Z " fill="#DBB45E" transform="translate(1023.625,466.9375)"/>
<path d="M0 0 C1.32 0 2.64 0 4 0 C4 0.66 4 1.32 4 2 C4.8971875 2.433125 4.8971875 2.433125 5.8125 2.875 C8 4 8 4 11 6 C11 5.34 11 4.68 11 4 C11.99 4 12.98 4 14 4 C13.67 5.65 13.34 7.3 13 9 C13.763125 9.061875 14.52625 9.12375 15.3125 9.1875 C18 10 18 10 19.75 12.25 C20.96801495 14.92963288 21.57556366 17.09968504 22 20 C22.185625 21.093125 22.37125 22.18625 22.5625 23.3125 C22.706875 24.199375 22.85125 25.08625 23 26 C20.82393778 23.15086148 18.80836736 20.22720832 16.8125 17.25 C12.12166737 10.52614266 6.5609999 4.92074992 0 0 Z " fill="#FAF6D9" transform="translate(921,389)"/>
<path d="M0 0 C2.475 0.495 2.475 0.495 5 1 C4.01 1.33 3.02 1.66 2 2 C2 2.66 2 3.32 2 4 C3.32 4.33 4.64 4.66 6 5 C5.67 5.33 5.34 5.66 5 6 C8.63 6 12.26 6 16 6 C16 6.66 16 7.32 16 8 C15.34 8.33 14.68 8.66 14 9 C14 9.66 14 10.32 14 11 C11.88050003 10.49092841 9.80209442 9.93753923 7.72265625 9.28125 C-2.34163643 6.32551059 -12.58733629 6.26485274 -23 6 C-23 5.67 -23 5.34 -23 5 C-15.74 4.67 -8.48 4.34 -1 4 C-0.67 2.68 -0.34 1.36 0 0 Z " fill="#FCF9D7" transform="translate(918,434)"/>
<path d="M0 0 C0.74056641 0.00902344 1.48113281 0.01804687 2.24414062 0.02734375 C4.05873467 0.05075787 5.87316071 0.08662385 7.6875 0.125 C7.3575 0.785 7.0275 1.445 6.6875 2.125 C4.64506472 2.75885922 2.59617481 3.14326504 0.5 3.5625 C-0.3971875 3.8409375 -0.3971875 3.8409375 -1.3125 4.125 C-1.6425 4.785 -1.9725 5.445 -2.3125 6.125 C-1.6525 6.125 -0.9925 6.125 -0.3125 6.125 C-0.6425 7.115 -0.9725 8.105 -1.3125 9.125 C-5.71179732 8.63618919 -7.29444986 7.24365181 -10.3125 4.125 C-11.3025 4.125 -12.2925 4.125 -13.3125 4.125 C-13.3125 3.465 -13.3125 2.805 -13.3125 2.125 C-8.90220217 -0.08449832 -4.82309676 -0.1120648 0 0 Z " fill="#DEAF4C" transform="translate(947.3125,495.875)"/>
<path d="M0 0 C0.66 0.99 1.32 1.98 2 3 C1.54625 3.4125 1.0925 3.825 0.625 4.25 C-1.05950374 6.06408095 -1.99265971 7.75285627 -3 10 C-3.33 10 -3.66 10 -4 10 C-4.06058594 11.28777344 -4.12117187 12.57554687 -4.18359375 13.90234375 C-4.26798247 15.58074159 -4.3526313 17.25912636 -4.4375 18.9375 C-4.47681641 19.78763672 -4.51613281 20.63777344 -4.55664062 21.51367188 C-4.59853516 22.32255859 -4.64042969 23.13144531 -4.68359375 23.96484375 C-4.73858032 25.08814087 -4.73858032 25.08814087 -4.79467773 26.23413086 C-5 28 -5 28 -6 29 C-7.68608966 29.07205511 -9.37500659 29.08386068 -11.0625 29.0625 C-11.98160156 29.05347656 -12.90070312 29.04445313 -13.84765625 29.03515625 C-14.55792969 29.02355469 -15.26820313 29.01195312 -16 29 C-16 28.67 -16 28.34 -16 28 C-13.03 28 -10.06 28 -7 28 C-7.08121094 26.56527344 -7.16242187 25.13054688 -7.24609375 23.65234375 C-7.3117794 21.74745985 -7.37547653 19.84250666 -7.4375 17.9375 C-7.49615234 16.99455078 -7.55480469 16.05160156 -7.61523438 15.08007812 C-7.78524894 8.10948077 -7.78524894 8.10948077 -5.41064453 4.75439453 C-3.68351381 3.02726381 -1.94662351 1.47258667 0 0 Z " fill="#F5EDC5" transform="translate(898,561)"/>
<path d="M0 0 C2.97 0 5.94 0 9 0 C9.14529183 6.53813222 8.64647582 12.67202293 7.625 19.125 C7.49867187 19.97964844 7.37234375 20.83429688 7.2421875 21.71484375 C6.48950224 26.61482481 5.4751396 31.26672599 4 36 C0.63408134 34.55746343 -1.51047079 32.66735273 -4 30 C0.75 31.875 0.75 31.875 3 33 C3.08040527 32.42145264 3.16081055 31.84290527 3.24365234 31.24682617 C6.20479426 10.01826886 6.20479426 10.01826886 8 1 C5.36 1 2.72 1 0 1 C0 0.67 0 0.34 0 0 Z " fill="#FAF2D2" transform="translate(1018,469)"/>
<path d="M0 0 C5.53846154 -0.36923077 5.53846154 -0.36923077 7.875 1.5 C8.24625 1.995 8.6175 2.49 9 3 C9.33 2.01 9.66 1.02 10 0 C10 2.97 10 5.94 10 9 C8.35 8.67 6.7 8.34 5 8 C5 7.01 5 6.02 5 5 C4.01 5.495 4.01 5.495 3 6 C1.00039988 6.039992 -1.00047242 6.04346799 -3 6 C-3 5.34 -3 4.68 -3 4 C-3.99 3.67 -4.98 3.34 -6 3 C-4.02 3 -2.04 3 0 3 C0 2.01 0 1.02 0 0 Z " fill="#F8FEF4" transform="translate(935,439)"/>
<path d="M0 0 C0 0.33 0 0.66 0 1 C-5.19209404 1.21192221 -9.126739 0.5912689 -14 -1 C-14 -1.66 -14 -2.32 -14 -3 C-14.99 -2.67 -15.98 -2.34 -17 -2 C-19.807347 -1.93235308 -22.59897771 -2.00212855 -25.40625 -2.0625 C-28.1166664 -2.12404608 -28.1166664 -2.12404608 -31 -1 C-33.00875442 -1.27571139 -35.01178687 -1.60235737 -37 -2 C-25.94960115 -9.36693257 -11.48187238 -3.60822028 0 0 Z " fill="#FBF4D5" transform="translate(976,640)"/>
<path d="M0 0 C2.0625 0.4375 2.0625 0.4375 4 1 C-6.94785335 7.08214075 -18.56481198 8.9202696 -30.75878906 5.56494141 C-33.52111065 4.75582594 -36.26427571 3.89460181 -39 3 C-39 2.67 -39 2.34 -39 2 C-37.5629191 1.94577053 -36.12524538 1.90710277 -34.6875 1.875 C-33.88699219 1.85179687 -33.08648438 1.82859375 -32.26171875 1.8046875 C-30 2 -30 2 -27 4 C-17.7870385 6.10666753 -9.72733613 4.21205809 -1 1 C-0.67 0.67 -0.34 0.34 0 0 Z " fill="#DBB860" transform="translate(1004,635)"/>
<path d="M0 0 C0.99 0 1.98 0 3 0 C1.53767917 3.05058316 -0.14365068 5.88349269 -1.9375 8.75 C-7.53008611 18.14827275 -8.59192646 26.19308696 -9 37 C-9.66 37 -10.32 37 -11 37 C-11.59170857 27.87782615 -10.0494186 20.56953403 -7 12 C-6.33056389 10.00092528 -5.66308137 8.00119153 -5 6 C-4.01 6 -3.02 6 -2 6 C-1.34 4.02 -0.68 2.04 0 0 Z " fill="#DBB85B" transform="translate(867,472)"/>
<path d="M0 0 C0.33 0.99 0.66 1.98 1 3 C0.54625 3.721875 0.0925 4.44375 -0.375 5.1875 C-2.50728728 8.87799721 -2.64177132 11.77290158 -3 16 C-2.34 16.33 -1.68 16.66 -1 17 C-1.66 17.99 -2.32 18.98 -3 20 C-3.66 20 -4.32 20 -5 20 C-5.99 22.31 -6.98 24.62 -8 27 C-9.65 27 -11.3 27 -13 27 C-12 25 -12 25 -9 24 C-8.23686675 21.64450209 -7.64907313 19.40894323 -7.125 17 C-5.62535121 10.71329864 -3.59418909 5.43547449 0 0 Z " fill="#DBB55A" transform="translate(871,486)"/>
<path d="M0 0 C-0.99 0.33 -1.98 0.66 -3 1 C-3 1.66 -3 2.32 -3 3 C-3.99 3.33 -4.98 3.66 -6 4 C-6 5.65 -6 7.3 -6 9 C-7.98 9.33 -9.96 9.66 -12 10 C-12 9.34 -12 8.68 -12 8 C-13.11375 8.680625 -14.2275 9.36125 -15.375 10.0625 C-17.2734375 11.22265625 -17.2734375 11.22265625 -19 12 C-19.66 11.67 -20.32 11.34 -21 11 C-4.24568138 -2.12284069 -4.24568138 -2.12284069 0 0 Z " fill="#DFB454" transform="translate(900,465)"/>
<path d="M0 0 C-1 3 -1 3 -3 4 C-3 4.66 -3 5.32 -3 6 C-3.99 6 -4.98 6 -6 6 C-6 6.66 -6 7.32 -6 8 C-5.34 8 -4.68 8 -4 8 C-4 8.66 -4 9.32 -4 10 C-4.99 10.33 -5.98 10.66 -7 11 C-7.33 10.01 -7.66 9.02 -8 8 C-9.36125 8.7734375 -9.36125 8.7734375 -10.75 9.5625 C-14.16419665 11.07262544 -14.68604014 11.08784335 -18 10 C-4.1369863 0 -4.1369863 0 0 0 Z " fill="#E2B650" transform="translate(882,444)"/>
<path d="M0 0 C0.66 0.33 1.32 0.66 2 1 C2 1.99 2 2.98 2 4 C3.32 4.33 4.64 4.66 6 5 C6.33 6.65 6.66 8.3 7 10 C2.14036821 9.39254603 -1.7405518 7.27241033 -6 5 C-6 4.01 -6 3.02 -6 2 C-6.66 1.67 -7.32 1.34 -8 1 C-6.576875 1.309375 -6.576875 1.309375 -5.125 1.625 C-4.09375 1.74875 -3.0625 1.8725 -2 2 C-1.34 1.34 -0.68 0.68 0 0 Z " fill="#E4B54C" transform="translate(888,619)"/>
<path d="M0 0 C0 2.62113708 -0.31292445 4.50935112 -1 7 C-0.01 7 0.98 7 2 7 C1.34 9.64 0.68 12.28 0 15 C-1.65 15.33 -3.3 15.66 -5 16 C-4.67 14.02 -4.34 12.04 -4 10 C-4.66 9.67 -5.32 9.34 -6 9 C-4.68775452 5.06326356 -3.08089673 2.77280706 0 0 Z " fill="#E1B35B" transform="translate(878,477)"/>
<path d="M0 0 C9.50427682 -0.47521384 18.08449437 1.78051186 27 5 C27 5.33 27 5.66 27 6 C22.38 6 17.76 6 13 6 C12.67 5.34 12.34 4.68 12 4 C10.700625 4.0928125 10.700625 4.0928125 9.375 4.1875 C5.55800967 3.97544498 3.28922464 2.87955693 0 1 C0 0.67 0 0.34 0 0 Z " fill="#DEB95D" transform="translate(907,440)"/>
<path d="M0 0 C1.32 0.99 2.64 1.98 4 3 C3.01 4.485 3.01 4.485 2 6 C1.67478946 7.99593196 1.67478946 7.99593196 1.68115234 10.19604492 C1.66128265 11.03668991 1.64141296 11.8773349 1.62094116 12.74345398 C1.60938995 13.64666885 1.59783875 14.54988373 1.5859375 15.48046875 C1.56657135 16.40845779 1.5472052 17.33644684 1.5272522 18.29255676 C1.46745756 21.25744425 1.42107145 24.22237057 1.375 27.1875 C1.33682012 29.19728259 1.29776838 31.20704881 1.2578125 33.21679688 C1.16175607 38.14439842 1.07772451 43.07207658 1 48 C0.67 48 0.34 48 0 48 C0 32.16 0 16.32 0 0 Z " fill="#FBFBE3" transform="translate(955,542)"/>
<path d="M0 0 C0.33 0 0.66 0 1 0 C1.02686553 1.97909398 1.04633375 3.95828971 1.0625 5.9375 C1.07410156 7.03964844 1.08570313 8.14179687 1.09765625 9.27734375 C1 12 1 12 0 13 C-0.165 14.155 -0.33 15.31 -0.5 16.5 C-1 20 -1 20 -2 21 C-2.0825 22.2375 -2.165 23.475 -2.25 24.75 C-2.72309809 29.20834808 -4.5220202 31.14627299 -8 34 C-7.82984375 33.46375 -7.6596875 32.9275 -7.484375 32.375 C-5.79535635 26.91264182 -4.28578722 21.41460487 -2.875 15.875 C-2.70452148 15.21886719 -2.53404297 14.56273437 -2.35839844 13.88671875 C-1.20044488 9.27332128 -0.5160802 4.72897983 0 0 Z " fill="#FBF3D2" transform="translate(1066,536)"/>
<path d="M0 0 C0.33 0 0.66 0 1 0 C1.02505615 0.77190674 1.0501123 1.54381348 1.07592773 2.33911133 C1.19184007 5.83041181 1.31458824 9.32143922 1.4375 12.8125 C1.47681641 14.02744141 1.51613281 15.24238281 1.55664062 16.49414062 C1.59853516 17.65751953 1.64042969 18.82089844 1.68359375 20.01953125 C1.72025146 21.09307861 1.75690918 22.16662598 1.79467773 23.27270508 C1.89541847 26.09311553 1.89541847 26.09311553 3 29 C2.67 29.66 2.34 30.32 2 31 C1.77141886 33.0374763 1.58975722 35.08040303 1.4375 37.125 C1.35371094 38.22070312 1.26992188 39.31640625 1.18359375 40.4453125 C1.12300781 41.28835938 1.06242188 42.13140625 1 43 C0.67 43 0.34 43 0 43 C0 28.81 0 14.62 0 0 Z " fill="#F7FAE9" transform="translate(924,547)"/>
<path d="M0 0 C0 7.92 0 15.84 0 24 C-0.66 24 -1.32 24 -2 24 C-2 17.07 -2 10.14 -2 3 C-2.66 2.67 -3.32 2.34 -4 2 C-1 0 -1 0 0 0 Z " fill="#F7F4DC" transform="translate(915,546)"/>
<path d="M0 0 C9.117625 0.9117625 16.32144482 5.99325215 23 12 C24.03638734 13.30525057 25.04866555 14.63151889 26 16 C22.22804781 14.24873648 19.19071892 11.93814218 15.9375 9.375 C13.94584047 7.82019037 13.94584047 7.82019037 11 7 C11 6.34 11 5.68 11 5 C10.4225 4.855625 9.845 4.71125 9.25 4.5625 C7.16666667 4.04166667 5.08333333 3.52083333 3 3 C3 2.34 3 1.68 3 1 C2.01 0.67 1.02 0.34 0 0 Z " fill="#D9B75E" transform="translate(1020,444)"/>
<path d="M0 0 C-4.14739209 2.96128572 -7.38791295 3.48557047 -12.4375 3.75 C-13.71496094 3.82734375 -14.99242187 3.9046875 -16.30859375 3.984375 C-19.69018062 3.9986886 -22.69481653 3.67431873 -26 3 C-26 2.34 -26 1.68 -26 1 C-24.65808594 1.03480469 -24.65808594 1.03480469 -23.2890625 1.0703125 C-16.5698181 1.17059973 -10.41954536 0.99369278 -3.890625 -0.66015625 C-2 -1 -2 -1 0 0 Z " fill="#FEF9DA" transform="translate(1002,640)"/>
<path d="M0 0 C1.67013418 0.65793165 3.3357865 1.32723284 5 2 C6.155 2.433125 7.31 2.86625 8.5 3.3125 C13.62453398 5.78325745 16.76462081 9.40235589 20 14 C15.97591531 12.58317163 12.86583081 10.65214232 9.4375 8.125 C8.50808594 7.44695313 7.57867188 6.76890625 6.62109375 6.0703125 C4.22525515 4.17792135 2.10377305 2.20772419 0 0 Z " fill="#D9BA58" transform="translate(882,624)"/>
<path d="M0 0 C0.66 1.32 1.32 2.64 2 4 C-0.64 6.64 -3.28 9.28 -6 12 C-6.99 10.68 -7.98 9.36 -9 8 C-7.88625 7.13375 -7.88625 7.13375 -6.75 6.25 C-4.33912357 4.27746474 -2.15957299 2.23955718 0 0 Z " fill="#E5C46A" transform="translate(905,549)"/>
<path d="M0 0 C0.66 0 1.32 0 2 0 C2 4.95 2 9.9 2 15 C-7.10714286 12.05357143 -7.10714286 12.05357143 -11 10 C-7.25 8 -7.25 8 -5 8 C-5 8.99 -5 9.98 -5 11 C-3.35 11.33 -1.7 11.66 0 12 C0 8.04 0 4.08 0 0 Z " fill="#F8EFC8" transform="translate(945,436)"/>
<path d="M0 0 C0.33 0.66 0.66 1.32 1 2 C1.66 2 2.32 2 3 2 C2.34 6.29 1.68 10.58 1 15 C0.01 15 -0.98 15 -2 15 C-2.19392201 9.47322267 -1.7479503 5.24385089 0 0 Z " fill="#F3F9F4" transform="translate(861,494)"/>
<path d="M0 0 C0.99 0.33 1.98 0.66 3 1 C2.01 1.33 1.02 1.66 0 2 C0.66 3.32 1.32 4.64 2 6 C-0.31 7.65 -2.62 9.3 -5 11 C-5.66 9.68 -6.32 8.36 -7 7 C-4.69 4.69 -2.38 2.38 0 0 Z " fill="#E5C16C" transform="translate(935,519)"/>
<path d="M0 0 C1.20930281 3.97097304 0.56147135 6.13741297 -1 10 C-1.99 11.485 -1.99 11.485 -3 13 C-3.39013716 14.9896995 -3.73202649 16.99019869 -4 19 C-4.66 19 -5.32 19 -6 19 C-6.33 19.99 -6.66 20.98 -7 22 C-6.44147333 16.5632024 -5.06042383 12.0816633 -2.9375 7.0625 C-2.65583984 6.37865234 -2.37417969 5.69480469 -2.08398438 4.99023438 C-1.3964595 3.32386054 -0.69923825 1.66149273 0 0 Z " fill="#DCB968" transform="translate(847,475)"/>
<path d="M0 0 C0.33 0 0.66 0 1 0 C1 5.94 1 11.88 1 18 C0.34 18 -0.32 18 -1 18 C-2.51158971 14.97682058 -1.87822849 12.33987848 -1.625 9 C-1.53476562 7.741875 -1.44453125 6.48375 -1.3515625 5.1875 C-1 2 -1 2 0 0 Z " fill="#EBC160" transform="translate(984,566)"/>
<path d="M0 0 C5.57457614 2.47758939 9.36861987 6.15815983 13 11 C11.35 10.67 9.7 10.34 8 10 C8 9.01 8 8.02 8 7 C6.35 7 4.7 7 3 7 C2.67 5.35 2.34 3.7 2 2 C0.35 2.66 -1.3 3.32 -3 4 C-2.01 2.68 -1.02 1.36 0 0 Z " fill="#F9F0CD" transform="translate(935,499)"/>
<path d="M0 0 C0.33 0.99 0.66 1.98 1 3 C-0.75 5.5 -0.75 5.5 -3 8 C-3.45375 8.556875 -3.9075 9.11375 -4.375 9.6875 C-6.68552649 11.55369447 -9.17438253 12.18371051 -12 13 C-8.19524578 8.43969176 -4.25030379 4.14910608 0 0 Z " fill="#FCFBE2" transform="translate(986,502)"/>
<path d="M0 0 C-0.33 0.66 -0.66 1.32 -1 2 C-4.0625 2.625 -4.0625 2.625 -7 3 C-7.33 3.99 -7.66 4.98 -8 6 C-10.49361571 4.79618552 -12.68143083 3.54571278 -15 2 C-9.75614911 0.2520497 -5.52677733 -0.19392201 0 0 Z " fill="#E3BB5D" transform="translate(902,440)"/>
<path d="M0 0 C1 3 1 3 0.3125 5.01171875 C-1.21254648 7.32198261 -2.64359539 8.37873176 -5 9.8125 C-5.70125 10.25207031 -6.4025 10.69164062 -7.125 11.14453125 C-7.74375 11.42683594 -8.3625 11.70914063 -9 12 C-9.66 11.67 -10.32 11.34 -11 11 C-7.37 7.37 -3.74 3.74 0 0 Z " fill="#FAF5D8" transform="translate(931,503)"/>
<path d="M0 0 C1.66666667 1.66666667 3.33333333 3.33333333 5 5 C5.8971875 5.8353125 5.8971875 5.8353125 6.8125 6.6875 C8 8 8 8 8 10 C6.03125 11.5078125 6.03125 11.5078125 3.5 13.125 C2.6646875 13.66382813 1.829375 14.20265625 0.96875 14.7578125 C0.3190625 15.16773438 -0.330625 15.57765625 -1 16 C-0.2578125 12.21875 -0.2578125 12.21875 2.0625 10.25 C3.0215625 9.63125 3.0215625 9.63125 4 9 C3.67 7.35 3.34 5.7 3 4 C2.34 4 1.68 4 1 4 C0.67 2.68 0.34 1.36 0 0 Z " fill="#DABF6C" transform="translate(976,393)"/>
<path d="M0 0 C1.32 0.66 2.64 1.32 4 2 C1.36 4.97 -1.28 7.94 -4 11 C-4.33 10.01 -4.66 9.02 -5 8 C-4.34 8 -3.68 8 -3 8 C-3.061875 7.05125 -3.12375 6.1025 -3.1875 5.125 C-3.125625 4.09375 -3.06375 3.0625 -3 2 C-2.01 1.34 -1.02 0.68 0 0 Z " fill="#DAB651" transform="translate(893,536)"/>
<path d="M0 0 C-0.33 0.99 -0.66 1.98 -1 3 C-3.0625 3.6875 -3.0625 3.6875 -5 4 C-5.33 3.34 -5.66 2.68 -6 2 C-7.65 2 -9.3 2 -11 2 C-11 2.99 -11 3.98 -11 5 C-12.32 4.67 -13.64 4.34 -15 4 C-14.34 4 -13.68 4 -13 4 C-13.33 3.01 -13.66 2.02 -14 1 C-8.83955235 -0.512545 -5.34001821 -1.33500455 0 0 Z " fill="#FDFDE7" transform="translate(993,436)"/>
<path d="M0 0 C1.32 0 2.64 0 4 0 C4 0.66 4 1.32 4 2 C4.99 2.33 5.98 2.66 7 3 C4.03 5.475 4.03 5.475 1 8 C0.34 5.69 -0.32 3.38 -1 1 C-0.67 0.67 -0.34 0.34 0 0 Z " fill="#E1B24D" transform="translate(913,512)"/>
<path d="M0 0 C1.66666667 0 3.33333333 0 5 0 C5.1875 2.875 5.1875 2.875 5 6 C4.01 6.66 3.02 7.32 2 8 C2 7.34 2 6.68 2 6 C1.01 6 0.02 6 -1 6 C-1.042721 4.33388095 -1.04063832 2.66617115 -1 1 C-0.67 0.67 -0.34 0.34 0 0 Z " fill="#E0BA4F" transform="translate(844,487)"/>
<path d="M0 0 C0.66 0.33 1.32 0.66 2 1 C1.01 2.485 1.01 2.485 0 4 C1.00445663 6.24071094 1.87754985 7.87754985 3.625 9.625 C4.07875 10.07875 4.5325 10.5325 5 11 C5 11.66 5 12.32 5 13 C4.34 13 3.68 13 3 13 C1.23828125 11.13671875 1.23828125 11.13671875 -0.6875 8.6875 C-1.33074219 7.88699219 -1.97398437 7.08648437 -2.63671875 6.26171875 C-3.08660156 5.51535156 -3.53648437 4.76898438 -4 4 C-3.67 3.01 -3.34 2.02 -3 1 C-2.01 0.67 -1.02 0.34 0 0 Z " fill="#FBF4D0" transform="translate(996,474)"/>
<path d="M0 0 C4.76058041 5.52841596 4.76058041 5.52841596 5 9 C4.34 9.66 3.68 10.32 3 11 C2.34 9.68 1.68 8.36 1 7 C0.34 7 -0.32 7 -1 7 C-1.625 4.625 -1.625 4.625 -2 2 C-1.34 1.34 -0.68 0.68 0 0 Z " fill="#FDF9E4" transform="translate(883,403)"/>
<path d="M0 0 C3.3 0 6.6 0 10 0 C9.01 0.495 9.01 0.495 8 1 C8 2.32 8 3.64 8 5 C7.01 5.33 6.02 5.66 5 6 C4.67 5.01 4.34 4.02 4 3 C3.01 2.67 2.02 2.34 1 2 C0.67 3.32 0.34 4.64 0 6 C0 4.02 0 2.04 0 0 Z " fill="#E9B84E" transform="translate(881,382)"/>
<path d="M0 0 C0.66 0 1.32 0 2 0 C2.48198463 1.24891614 2.96045677 2.49918808 3.4375 3.75 C3.70433594 4.44609375 3.97117187 5.1421875 4.24609375 5.859375 C4.96146693 7.89059003 5.51365652 9.9035291 6 12 C5.01 12.33 4.02 12.66 3 13 C2.87625 12.195625 2.7525 11.39125 2.625 10.5625 C2.315625 9.2940625 2.315625 9.2940625 2 8 C1.34 7.67 0.68 7.34 0 7 C0 4.69 0 2.38 0 0 Z " fill="#E3B449" transform="translate(850,553)"/>
<path d="M0 0 C-1 3 -1 3 -3 4 C-3 4.66 -3 5.32 -3 6 C-3.886875 5.95875 -4.77375 5.9175 -5.6875 5.875 C-8.97277013 5.99897246 -11.05449295 6.61387904 -14 8 C-10.67417683 4.11987297 -5.34770586 0 0 0 Z " fill="#E2BC60" transform="translate(882,444)"/>
<path d="M0 0 C1.65 0 3.3 0 5 0 C3.68 0.33 2.36 0.66 1 1 C1.33 5.95 1.66 10.9 2 16 C1.01 16 0.02 16 -1 16 C-1.11138159 10.54230189 -0.91657981 5.38490641 0 0 Z " fill="#F4E9C5" transform="translate(879,380)"/>
<path d="M0 0 C0.33 0.99 0.66 1.98 1 3 C-0.21484375 4.82421875 -0.21484375 4.82421875 -1.9375 6.6875 C-2.50339844 7.31011719 -3.06929687 7.93273437 -3.65234375 8.57421875 C-4.09707031 9.04472656 -4.54179688 9.51523437 -5 10 C-6.32 9.67 -7.64 9.34 -9 9 C-6.03 6.03 -3.06 3.06 0 0 Z " fill="#F9F6DA" transform="translate(908,526)"/>
<path d="M0 0 C1.32 0.33 2.64 0.66 4 1 C0.7 4.3 -2.6 7.6 -6 11 C-6.33 9.68 -6.66 8.36 -7 7 C-5.68 6.67 -4.36 6.34 -3 6 C-3 5.34 -3 4.68 -3 4 C-2.34 3.67 -1.68 3.34 -1 3 C-0.67 2.01 -0.34 1.02 0 0 Z " fill="#D5BA5E" transform="translate(991,493)"/>
<path d="M0 0 C0.33 1.98 0.66 3.96 1 6 C-2 6 -2 6 -3.38671875 4.6875 C-4.59114583 3.125 -5.79557292 1.5625 -7 0 C-4.3333581 -1.33332095 -2.83319697 -0.67102033 0 0 Z " fill="#FBF9E2" transform="translate(1047,453)"/>
<path d="M0 0 C2.88437779 1.29299694 4.87219421 2.65941363 7 5 C5.39125 4.6596875 5.39125 4.6596875 3.75 4.3125 C0.07021424 3.64224175 0.07021424 3.64224175 -2.4375 5.4375 C-2.953125 5.953125 -3.46875 6.46875 -4 7 C-4.66 6.67 -5.32 6.34 -6 6 C-4.02 4.02 -2.04 2.04 0 0 Z " fill="#FAF9DF" transform="translate(935,525)"/>
<path d="M0 0 C0 4.32035599 -2.06845243 6.9179135 -5 10 C-7.8125 10.9375 -7.8125 10.9375 -10 11 C-6.79239749 7.19364503 -3.59253891 3.45436433 0 0 Z " fill="#F9F4D4" transform="translate(919,515)"/>
<path d="M0 0 C2.04119788 1.61594832 4.04072937 3.2856382 6 5 C6 5.66 6 6.32 6 7 C6.66 7.33 7.32 7.66 8 8 C5.03 10.475 5.03 10.475 2 13 C1.67 12.01 1.34 11.02 1 10 C1.99 9.34 2.98 8.68 4 8 C3.71125 7.4225 3.4225 6.845 3.125 6.25 C2.08333333 4.16666667 1.04166667 2.08333333 0 0 Z " fill="#D8BD62" transform="translate(993,480)"/>
<path d="M0 0 C0 4.1592308 -2.24683568 6.14544435 -5 9 C-7.3125 10.875 -7.3125 10.875 -9 12 C-9.66 11.67 -10.32 11.34 -11 11 C-7.37 7.37 -3.74 3.74 0 0 Z " fill="#F8F3D1" transform="translate(910,549)"/>
<path d="M0 0 C1.32 0.99 2.64 1.98 4 3 C1.03 5.475 1.03 5.475 -2 8 C-2.33 6.02 -2.66 4.04 -3 2 C-2.01 1.34 -1.02 0.68 0 0 Z " fill="#DEB453" transform="translate(900,528)"/>
<path d="M0 0 C-1.38081223 4.1424367 -3.59825558 5.32203099 -7 8 C-7.66 7.01 -8.32 6.02 -9 5 C-8.34 5 -7.68 5 -7 5 C-7 4.34 -7 3.68 -7 3 C-4.4385343 0.70351351 -3.52032428 0 0 0 Z " fill="#FCFBF0" transform="translate(1022,629)"/>
<path d="M0 0 C0.33 0.66 0.66 1.32 1 2 C2.32 1.67 3.64 1.34 5 1 C5.33 2.32 5.66 3.64 6 5 C1.71 4.67 -2.58 4.34 -7 4 C-4.68143083 2.45428722 -2.49361571 1.20381448 0 0 Z " fill="#D9BB56" transform="translate(895,456)"/>
<path d="M0 0 C0.66 0.33 1.32 0.66 2 1 C1.67 1.33 1.34 1.66 1 2 C1.66 2.66 2.32 3.32 3 4 C0.64561267 5.42944945 -0.48032433 6.08661261 -3.25 5.625 C-3.8275 5.41875 -4.405 5.2125 -5 5 C-4 2 -4 2 -2.0625 0.75 C-1.381875 0.5025 -0.70125 0.255 0 0 Z " fill="#FCFBEB" transform="translate(1002,639)"/>
<path d="M0 0 C0.66 0 1.32 0 2 0 C0.62845496 2.95409701 -0.98863724 5.44008376 -3 8 C-3.99 7.67 -4.98 7.34 -6 7 C-5.01 6.67 -4.02 6.34 -3 6 C-3 5.01 -3 4.02 -3 3 C-4.32 3 -5.64 3 -7 3 C-6.67 2.34 -6.34 1.68 -6 1 C-4.7934375 1.0309375 -4.7934375 1.0309375 -3.5625 1.0625 C-1.06645115 1.29633621 -1.06645115 1.29633621 0 0 Z " fill="#E1C16C" transform="translate(969,541)"/>
<path d="M0 0 C1.875 0.25 1.875 0.25 4 1 C5.25 3.0625 5.25 3.0625 6 5 C5.34 5.66 4.68 6.32 4 7 C4 6.34 4 5.68 4 5 C2.68 4.67 1.36 4.34 0 4 C0 2.68 0 1.36 0 0 Z " fill="#FBFCEA" transform="translate(935,398)"/>
<path d="M0 0 C2 1 2 1 2 1 Z M-1 1 C-0.34 1.66 0.32 2.32 1 3 C-1.97 5.475 -1.97 5.475 -5 8 C-5.33 7.01 -5.66 6.02 -6 5 C-4.35 3.68 -2.7 2.36 -1 1 Z " fill="#FDFAE8" transform="translate(1038,609)"/>
<path d="M0 0 C0.33 0.99 0.66 1.98 1 3 C-0.52994792 4.20442708 -2.05989583 5.40885417 -3.58984375 6.61328125 C-5.27155077 8.05683091 -5.27155077 8.05683091 -6 11 C-7.32 10.67 -8.64 10.34 -10 10 C-5.375 5.125 -5.375 5.125 -2 4 C-0.79117904 1.99983534 -0.79117904 1.99983534 0 0 Z " fill="#F9F3D4" transform="translate(974,539)"/>
<path d="M0 0 C-1.49097658 3.7952131 -3.75700849 5.61042731 -7 8 C-6.62952882 5.25851328 -6.31412056 3.41406801 -4.625 1.1875 C-3 0 -3 0 0 0 Z " fill="#E3BF6B" transform="translate(1001,509)"/>
<path d="M0 0 C-1.32 1.32 -2.64 2.64 -4 4 C-3.34 4.33 -2.68 4.66 -2 5 C-3.32 4.67 -4.64 4.34 -6 4 C-6 3.34 -6 2.68 -6 2 C-6.66 2 -7.32 2 -8 2 C-8 1.34 -8 0.68 -8 0 C-4.71023192 -1.09658936 -3.28696233 -0.79953138 0 0 Z " fill="#E3AF59" transform="translate(949,498)"/>
<path d="M0 0 C5 2 5 2 10 4 C9.67 5.32 9.34 6.64 9 8 C7.49712782 6.85793642 5.99776716 5.71125043 4.5 4.5625 C3.6646875 3.92441406 2.829375 3.28632812 1.96875 2.62890625 C1.3190625 2.09136719 0.669375 1.55382812 0 1 C0 0.67 0 0.34 0 0 Z " fill="#DDBF63" transform="translate(882,624)"/>
<path d="M0 0 C0.66 0.66 1.32 1.32 2 2 C-0.64 4.31 -3.28 6.62 -6 9 C-6.33 8.01 -6.66 7.02 -7 6 C-5.1875 4 -5.1875 4 -3 2 C-2.01 2 -1.02 2 0 2 C0 1.34 0 0.68 0 0 Z " fill="#DCC05E" transform="translate(1023,621)"/>
<path d="M0 0 C0.33 0.99 0.66 1.98 1 3 C0.01 3.33 -0.98 3.66 -2 4 C-2.309375 4.66 -2.61875 5.32 -2.9375 6 C-3.288125 6.66 -3.63875 7.32 -4 8 C-6.06640625 8.625 -6.06640625 8.625 -8 9 C-7.04270084 7.87411986 -6.08412105 6.7493285 -5.125 5.625 C-4.59132813 4.99851562 -4.05765625 4.37203125 -3.5078125 3.7265625 C-2.38567993 2.44163349 -1.20628025 1.20628025 0 0 Z " fill="#FCFADE" transform="translate(995,493)"/>
<path d="M0 0 C1.32 0.33 2.64 0.66 4 1 C3.625 3.4375 3.625 3.4375 3 6 C2.01 6.495 2.01 6.495 1 7 C0.67 4.69 0.34 2.38 0 0 Z " fill="#E5B55F" transform="translate(882,384)"/>
<path d="M0 0 C0.97983761 3.04838368 1.21704816 5.00418914 0 8 C-2.0625 10.25 -2.0625 10.25 -4 12 C-2.66666667 8 -1.33333333 4 0 0 Z " fill="#FCF5D0" transform="translate(1057,570)"/>
<path d="M0 0 C1.21386936 3.64160808 0.6674695 4.33165469 -0.9375 7.6875 C-1.31777344 8.49574219 -1.69804688 9.30398438 -2.08984375 10.13671875 C-2.39019531 10.75160156 -2.69054688 11.36648438 -3 12 C-4.32554118 8.02337646 -3.34765994 5.90112089 -2 2 C-1.34 1.34 -0.68 0.68 0 0 Z " fill="#DAB65B" transform="translate(1056,570)"/>
<path d="M0 0 C1.29608947 0.93137592 2.58671632 1.8703566 3.875 2.8125 C4.59429688 3.33457031 5.31359375 3.85664062 6.0546875 4.39453125 C8 6 8 6 10 9 C6.17716957 8.45388137 4.58920048 6.76181385 2 4 C1.34 3.67 0.68 3.34 0 3 C0 2.01 0 1.02 0 0 Z " fill="#DBC16D" transform="translate(943,525)"/>
<path d="M0 0 C0.33 1.32 0.66 2.64 1 4 C0.01 4.495 0.01 4.495 -1 5 C-0.67 3.35 -0.34 1.7 0 0 Z M-5 2 C-4.34 2 -3.68 2 -3 2 C-3 2.99 -3 3.98 -3 5 C-2.34 5.33 -1.68 5.66 -1 6 C-2.65 6.33 -4.3 6.66 -6 7 C-5.67 5.35 -5.34 3.7 -5 2 Z " fill="#F7FCED" transform="translate(971,419)"/>
<path d="M0 0 C4.62 0.66 9.24 1.32 14 2 C14 2.33 14 2.66 14 3 C9.38 3 4.76 3 0 3 C0 2.01 0 1.02 0 0 Z " fill="#DFB44E" transform="translate(920,443)"/>
<path d="M0 0 C0.99 0.33 1.98 0.66 3 1 C1.02 3.31 -0.96 5.62 -3 8 C-3.33 7.01 -3.66 6.02 -4 5 C-3.34 5 -2.68 5 -2 5 C-2.33 4.01 -2.66 3.02 -3 2 C-2.01 1.34 -1.02 0.68 0 0 Z " fill="#D6B857" transform="translate(1031,612)"/>
<path d="M0 0 C2.35953094 2.35953094 2.49141413 3.77895617 3 7 C0.69 5.35 -1.62 3.7 -4 2 C-2.68 1.34 -1.36 0.68 0 0 Z " fill="#F9F3D7" transform="translate(945,522)"/>
<path d="M0 0 C1.32 0.33 2.64 0.66 4 1 C0.535 3.97 0.535 3.97 -3 7 C-3 5.68 -3 4.36 -3 3 C-2.01 3 -1.02 3 0 3 C0 2.01 0 1.02 0 0 Z " fill="#D2B052" transform="translate(908,522)"/>
<path d="M0 0 C1.32 0 2.64 0 4 0 C3.67 1.32 3.34 2.64 3 4 C1.35 4 -0.3 4 -2 4 C-2 3.34 -2 2.68 -2 2 C-1.34 2 -0.68 2 0 2 C0 1.34 0 0.68 0 0 Z " fill="#FEFBE1" transform="translate(1020,472)"/>
<path d="M0 0 C2.97 0.495 2.97 0.495 6 1 C2.31265242 3.45823172 -0.69699971 4.01242616 -5 5 C-4.67 4.34 -4.34 3.68 -4 3 C-3.01 3 -2.02 3 -1 3 C-0.67 2.01 -0.34 1.02 0 0 Z " fill="#FBF7D1" transform="translate(971,442)"/>
<path d="M0 0 C0.598125 0.20625 1.19625 0.4125 1.8125 0.625 C-3.9375 4.625 -3.9375 4.625 -6.1875 4.625 C-5.03076352 1.15479057 -3.91311293 -0.67081936 0 0 Z " fill="#D7BD58" transform="translate(1014.1875,630.375)"/>
<path d="M0 0 C3.27286682 2.7819368 4.96427697 6.27954067 7 10 C3.78634109 8.89184175 3.0085776 8.01470446 1.25 5 C0 2 0 2 0 0 Z " fill="#FCF3D9" transform="translate(858,595)"/>
<path d="M0 0 C1.33332095 2.6666419 0.67102033 4.16680303 0 7 C-0.33 6.34 -0.66 5.68 -1 5 C-2.65 5.66 -4.3 6.32 -6 7 C-4.02 4.69 -2.04 2.38 0 0 Z " fill="#E7D087" transform="translate(972,536)"/>
<path d="M0 0 C-1.28913487 0.67154933 -2.58140204 1.33708859 -3.875 2 C-4.59429688 2.37125 -5.31359375 2.7425 -6.0546875 3.125 C-8 4 -8 4 -10 4 C-10 3.34 -10 2.68 -10 2 C-3.375 -1.125 -3.375 -1.125 0 0 Z " fill="#D6B55D" transform="translate(888,461)"/>
<path d="M0 0 C-3.44833324 2.05257931 -5.31661591 3.0632763 -9.375 2.6875 C-10.24125 2.460625 -11.1075 2.23375 -12 2 C-12 1.67 -12 1.34 -12 1 C-10.37681021 0.63762737 -8.7513642 0.28534843 -7.125 -0.0625 C-6.22007812 -0.25972656 -5.31515625 -0.45695313 -4.3828125 -0.66015625 C-2 -1 -2 -1 0 0 Z " fill="#FAEBBE" transform="translate(1002,640)"/>
<path d="M0 0 C1.11375 0.4640625 1.11375 0.4640625 2.25 0.9375 C4.50692176 1.8094925 6.6450153 2.47667007 9 3 C8.67 3.99 8.34 4.98 8 6 C4.63408134 4.55746343 2.48952921 2.66735273 0 0 Z " fill="#FAF3D7" transform="translate(1014,499)"/>
<path d="M0 0 C3.91402949 1.26941497 5.79072873 2.51167694 8 6 C5.21788056 5.62403791 3.4120716 5.32681541 1.1875 3.5625 C0 2 0 2 0 0 Z " fill="#DAB762" transform="translate(921,390)"/>
</svg>
